<?xml version="1.0" encoding="utf-8"?>
<!-- Generator: Adobe Illustrator 23.0.1, SVG Export Plug-In . SVG Version: 6.00 Build 0)  -->
<svg version="1.1" id="Layer_1" xmlns="http://www.w3.org/2000/svg" xmlns:xlink="http://www.w3.org/1999/xlink" x="0px" y="0px"
	 viewBox="0 0 700 100" style="enable-background:new 0 0 700 100;" xml:space="preserve">
<style type="text/css">
	.st0{fill:#06AA9D;}
	.st1{fill:#FFFFFF;}
</style>
<rect class="st0" width="100" height="100"/>
<polyline class="st1" points="11.8,13 18.7,13 18.7,51.3 41.5,51.3 41.5,57.9 11.8,57.9 11.8,13 "/>
<polyline class="st1" points="52.8,13 59.7,13 59.7,31.1 80.8,31.1 80.8,13 87.7,13 87.7,57.9 80.8,57.9 80.8,37.6 59.6,37.6 
	59.6,57.9 52.8,57.9 52.8,13 "/>
<polyline class="st0" points="120.9,19.5 120.9,31.7 141.4,31.7 141.4,38.2 120.9,38.2 120.9,58 113.8,58 113.8,13 144.6,13 
	144.6,19.5 120.9,19.5 "/>
<path class="st0" d="M167.9,58.4v-3c-0.9,0.9-2,1.7-3.3,2.5c-1.3,0.8-2.9,1.2-4.8,1.2c-2.3,0-4.2-0.3-5.7-1
	c-1.6-0.6-2.8-1.5-3.8-2.7c-1-1.1-1.7-2.5-2.1-4c-0.4-1.5-0.6-3.2-0.6-5.1V25.2h6.5v21.3c0,2.1,0.5,3.6,1.5,4.7
	c1,1.1,2.6,1.6,4.8,1.6c2.5,0,4.4-0.9,5.7-2.8c1.3-1.9,1.9-4.2,1.9-7V25.2h6.5v33.2H167.9"/>
<path class="st0" d="M202.1,58.3V37.2c0-2.1-0.5-3.8-1.4-4.9c-1-1.1-2.6-1.7-4.8-1.7c-1.9,0-3.4,0.5-4.5,1.5c-1.1,1-1.9,2.1-2.4,3.4
	c-0.4,0.9-0.6,1.7-0.6,2.4c-0.1,0.8-0.1,1.7-0.1,2.7v17.7h-6.5V25.2h6.4v2.7c1.1-0.9,2.4-1.7,3.7-2.4c1.3-0.7,2.8-1.1,4.5-1.1
	c2.1,0,4.1,0.4,5.9,1.2c1.8,0.8,3.3,2.1,4.5,3.8c0.8,1.2,1.3,2.4,1.5,3.7c0.2,1.3,0.3,2.6,0.3,4v21.2H202.1"/>
<path class="st0" d="M236.6,58.3V55c-1,1.2-2.3,2.2-3.8,3.1c-1.6,0.9-3.1,1.3-4.6,1.3c-2.7,0-5-0.5-6.8-1.4
	c-1.8-0.9-3.4-2.2-4.5-3.8c-1.2-1.6-2-3.5-2.6-5.6c-0.5-2.1-0.8-4.4-0.8-6.9c0-2.3,0.3-4.5,0.9-6.6c0.6-2.1,1.4-4,2.6-5.6
	c1.2-1.6,2.7-2.9,4.5-3.8c1.8-1,4-1.4,6.5-1.4c3.3,0,6.1,1,8.6,3.1V13.2h6.8v45.1H236.6 M236.5,41.6c0-1.4-0.2-2.8-0.5-4.1
	c-0.3-1.3-0.8-2.5-1.5-3.5c-0.7-1-1.5-1.8-2.5-2.4c-1-0.6-2.2-0.9-3.5-0.9c-1.5,0-2.7,0.3-3.8,1c-1,0.6-1.9,1.5-2.5,2.6
	c-0.6,1.1-1.1,2.4-1.4,3.8c-0.3,1.4-0.4,3-0.3,4.5c0.1,3.1,0.8,5.6,2.2,7.5c1.4,1.8,3.3,2.8,5.7,2.8c2.7,0,4.8-1.1,6-3.3
	C235.9,47.3,236.5,44.7,236.5,41.6z"/>
<rect x="11.8" y="72.6" class="st1" width="75.9" height="16.2"/>
<g>
	<path class="st0" d="M282.8,32.1c0,0.9-0.3,1.5-0.8,2c-0.5,0.4-1.3,0.6-2.2,0.6h-5.6v-1h1.4v-5.7c0-0.1,0-0.2,0.1-0.4l0.1-0.1
		c-0.1,0-0.1,0-0.2,0c-0.1,0-0.1,0-0.2,0c-0.3,0-0.5-0.1-0.7-0.2c-0.2-0.1-0.4-0.2-0.6-0.4c-0.2-0.2-0.3-0.4-0.4-0.6
		c-0.1-0.2-0.1-0.5-0.1-0.8c0-0.3,0-0.5,0.1-0.8c0.1-0.2,0.2-0.4,0.4-0.6s0.4-0.3,0.6-0.4c0.2-0.1,0.5-0.2,0.7-0.2
		c0.3,0,0.5,0.1,0.7,0.2c0.2,0.1,0.4,0.2,0.6,0.4s0.3,0.4,0.4,0.6c0.1,0.2,0.1,0.5,0.1,0.8c0,0.3,0,0.5-0.1,0.7
		c-0.1,0.2-0.1,0.4-0.2,0.5c-0.1,0.2-0.1,0.3-0.2,0.5s-0.1,0.4-0.1,0.7v5.7h3.1c0.4,0,0.7,0,0.9-0.1c0.3-0.1,0.5-0.2,0.6-0.3
		s0.3-0.3,0.3-0.6c0.1-0.2,0.1-0.5,0.1-0.9v-8h1.1V32.1z M276.2,25.7c0-0.3-0.1-0.5-0.3-0.7c-0.2-0.2-0.4-0.3-0.6-0.3
		c-0.3,0-0.5,0.1-0.6,0.3s-0.3,0.5-0.3,0.7s0.1,0.5,0.3,0.7c0.2,0.2,0.4,0.3,0.6,0.3c0.3,0,0.5-0.1,0.6-0.3
		C276.1,26.2,276.2,26,276.2,25.7z"/>
	<path class="st0" d="M292.8,24.6c-0.2,0.2-0.4,0.4-0.7,0.6s-0.5,0.2-0.9,0.2c-0.3,0-0.5,0-0.7-0.1c-0.2-0.1-0.4-0.1-0.6-0.2
		c-0.2-0.1-0.4-0.2-0.6-0.3c-0.2-0.1-0.5-0.1-0.8-0.1c-0.3,0-0.6,0-0.8,0.1c-0.2,0.1-0.5,0.2-0.7,0.3s-0.4,0.3-0.6,0.4
		s-0.3,0.3-0.5,0.4c0.4,0,0.8,0,1.3,0c0.4,0,0.9,0.1,1.3,0.1c0.4,0.1,0.8,0.2,1.2,0.3c0.4,0.1,0.7,0.3,1,0.5
		c0.3,0.2,0.5,0.5,0.7,0.8c0.2,0.3,0.3,0.7,0.3,1.1v4.2c0,0.3-0.1,0.5-0.2,0.8c-0.1,0.2-0.2,0.4-0.4,0.6c-0.2,0.2-0.4,0.3-0.6,0.4
		c-0.2,0.1-0.5,0.2-0.8,0.2c-0.3,0-0.5-0.1-0.8-0.2c-0.2-0.1-0.4-0.2-0.6-0.4c-0.2-0.2-0.3-0.4-0.4-0.6c-0.1-0.2-0.2-0.5-0.2-0.8
		c0-0.3,0.1-0.5,0.2-0.8c0.1-0.2,0.2-0.4,0.4-0.6c0.2-0.2,0.4-0.3,0.6-0.4c0.2-0.1,0.5-0.2,0.8-0.2c0.1,0,0.3,0,0.4,0.1
		s0.3,0.1,0.4,0.1V29c0-0.4-0.1-0.8-0.3-1c-0.2-0.3-0.5-0.5-0.9-0.7c-0.4-0.2-0.8-0.3-1.2-0.4s-0.9-0.1-1.3-0.2s-0.9,0-1.3,0
		c-0.4,0-0.8,0-1.1,0v-0.8c0.3-0.2,0.5-0.4,0.8-0.7c0.2-0.3,0.5-0.5,0.8-0.7c0.3-0.2,0.6-0.4,1-0.5c0.4-0.1,0.8-0.2,1.3-0.2
		c0.4,0,0.7,0,0.9,0.1c0.2,0.1,0.5,0.2,0.7,0.2s0.4,0.2,0.5,0.2c0.2,0.1,0.3,0.1,0.5,0.1c0.2,0,0.4-0.1,0.6-0.2s0.3-0.2,0.4-0.3
		L292.8,24.6z M290.8,32.9c0-0.3-0.1-0.6-0.3-0.8c-0.2-0.2-0.4-0.3-0.7-0.3s-0.5,0.1-0.7,0.3c-0.2,0.2-0.3,0.5-0.3,0.8
		c0,0.3,0.1,0.6,0.3,0.8c0.2,0.2,0.4,0.3,0.7,0.3s0.5-0.1,0.7-0.3C290.7,33.4,290.8,33.2,290.8,32.9z"/>
	<path class="st0" d="M292,22.5c-0.5-0.1-1.1-0.1-1.7-0.2c-0.6,0-1.1-0.1-1.7-0.1c-0.6,0-1.1,0-1.6-0.1c-0.5,0-1,0-1.5,0
		c-0.4,0-0.7,0-1,0s-0.5,0-0.8,0v-0.7c0.2-0.1,0.4-0.3,0.6-0.6c0.2-0.2,0.4-0.5,0.7-0.7c0.3-0.2,0.5-0.4,0.9-0.6
		c0.3-0.2,0.8-0.3,1.3-0.3c0.4,0,0.7,0,1,0.1c0.3,0.1,0.6,0.2,0.9,0.3c0.3,0.1,0.6,0.3,1,0.5c0.3,0.2,0.7,0.5,1.2,0.7
		c0.1,0.1,0.3,0.2,0.4,0.2c0.1,0.1,0.3,0.1,0.4,0.2V22.5z M290.5,21.6c-0.2-0.1-0.4-0.2-0.7-0.4c-0.2-0.2-0.5-0.3-0.7-0.5
		c-0.3-0.2-0.5-0.3-0.8-0.4c-0.3-0.1-0.6-0.2-1-0.1c-0.3,0-0.6,0.1-0.8,0.1c-0.2,0.1-0.4,0.2-0.6,0.3c-0.2,0.1-0.3,0.3-0.5,0.4
		c-0.1,0.2-0.3,0.3-0.4,0.4c0.2,0,0.5,0,0.7,0c0.2,0,0.5,0,0.7,0c0.3,0,0.6,0,0.9,0s0.7,0,1,0.1c0.4,0,0.7,0,1.1,0.1
		S290.2,21.6,290.5,21.6L290.5,21.6z"/>
	<path class="st0" d="M305.3,27.5c0,0.3-0.1,0.5-0.2,0.8c-0.1,0.3-0.3,0.5-0.4,0.8s-0.4,0.5-0.7,0.7c-0.3,0.2-0.6,0.4-0.9,0.5v1.8
		c0,0.9-0.3,1.5-0.8,2c-0.5,0.4-1.3,0.6-2.2,0.6h-5.6v-1h1.4v-5.7c0-0.1,0-0.2,0.1-0.4l0.1-0.1c-0.1,0-0.1,0-0.2,0
		c-0.1,0-0.1,0-0.2,0c-0.3,0-0.5-0.1-0.7-0.2c-0.2-0.1-0.4-0.2-0.6-0.4c-0.2-0.2-0.3-0.4-0.4-0.6c-0.1-0.2-0.1-0.5-0.1-0.8
		c0-0.3,0-0.5,0.1-0.8c0.1-0.2,0.2-0.4,0.4-0.6s0.4-0.3,0.6-0.4c0.2-0.1,0.5-0.2,0.7-0.2c0.3,0,0.5,0.1,0.7,0.2
		c0.2,0.1,0.4,0.2,0.6,0.4s0.3,0.4,0.4,0.6c0.1,0.2,0.1,0.5,0.1,0.8c0,0.3,0,0.5-0.1,0.7c-0.1,0.2-0.1,0.4-0.2,0.5
		c-0.1,0.2-0.1,0.3-0.2,0.5s-0.1,0.4-0.1,0.7v5.7h3.1c0.4,0,0.7,0,0.9-0.1c0.3-0.1,0.5-0.2,0.6-0.3s0.3-0.3,0.3-0.6
		c0.1-0.2,0.1-0.5,0.1-0.9v-1.2c-0.1,0-0.2,0-0.3,0c-0.1,0-0.2,0-0.3,0c-0.5,0-0.9-0.1-1.3-0.2c-0.4-0.1-0.7-0.3-1-0.5
		c-0.3-0.2-0.5-0.4-0.7-0.7c-0.2-0.3-0.3-0.6-0.3-1c0-0.2,0-0.5,0.1-0.7c0.1-0.2,0.2-0.4,0.4-0.5s0.3-0.3,0.5-0.4
		c0.2-0.1,0.4-0.1,0.6-0.1c0.2,0,0.5,0,0.7,0.1c0.2,0.1,0.4,0.2,0.5,0.4s0.3,0.3,0.3,0.5c0.1,0.2,0.1,0.4,0.1,0.7
		c0,0.2-0.1,0.5-0.2,0.7c-0.1,0.2-0.3,0.4-0.5,0.6c0.1,0,0.3,0.1,0.5,0.1s0.4,0,0.7,0v-5.9h1.1v5.4c0.2-0.1,0.3-0.3,0.5-0.5
		c0.1-0.2,0.3-0.4,0.4-0.5c0.1-0.2,0.2-0.4,0.2-0.6c0.1-0.2,0.1-0.4,0.1-0.5L305.3,27.5z M296.5,25.7c0-0.3-0.1-0.5-0.3-0.7
		c-0.2-0.2-0.4-0.3-0.6-0.3c-0.3,0-0.5,0.1-0.6,0.3s-0.3,0.5-0.3,0.7s0.1,0.5,0.3,0.7c0.2,0.2,0.4,0.3,0.6,0.3
		c0.3,0,0.5-0.1,0.6-0.3C296.4,26.2,296.5,26,296.5,25.7z M300.6,28.4c0-0.3-0.1-0.5-0.2-0.7s-0.3-0.2-0.5-0.2
		c-0.2,0-0.4,0.1-0.5,0.2s-0.2,0.4-0.2,0.6c0,0.3,0.1,0.5,0.2,0.6c0.1,0.2,0.3,0.3,0.5,0.3c0.2,0,0.4-0.1,0.5-0.3
		S300.6,28.7,300.6,28.4z"/>
	<path class="st0" d="M306.6,18.9c-0.1,0.5-0.2,1-0.4,1.4c-0.2,0.4-0.5,0.8-0.9,1.2c-0.4,0.3-0.8,0.6-1.4,0.8
		c-0.5,0.2-1.1,0.3-1.8,0.3c-0.5,0-0.9-0.1-1.3-0.2c-0.4-0.1-0.8-0.2-1.1-0.4c-0.3-0.2-0.6-0.4-0.7-0.7c-0.2-0.3-0.3-0.6-0.3-0.9
		c0-0.2,0-0.4,0.1-0.6c0.1-0.2,0.2-0.4,0.3-0.5c0.1-0.1,0.3-0.3,0.5-0.3c0.2-0.1,0.4-0.1,0.6-0.1c0.2,0,0.4,0,0.6,0.1
		c0.2,0.1,0.4,0.2,0.5,0.3c0.1,0.1,0.3,0.3,0.3,0.5c0.1,0.2,0.1,0.4,0.1,0.6c0,0.3-0.1,0.5-0.2,0.7c-0.1,0.2-0.3,0.4-0.4,0.5
		c0.6,0.1,1.1,0,1.6-0.1s0.9-0.3,1.3-0.5c0.4-0.2,0.7-0.5,0.9-0.9c0.2-0.4,0.4-0.8,0.4-1.3H306.6z M301,20.3c0-0.2-0.1-0.4-0.2-0.5
		s-0.3-0.2-0.5-0.2c-0.2,0-0.4,0.1-0.5,0.2s-0.2,0.3-0.2,0.5c0,0.2,0.1,0.4,0.2,0.5s0.3,0.2,0.5,0.2c0.2,0,0.4-0.1,0.5-0.2
		S301,20.5,301,20.3z"/>
	<path class="st0" d="M313.3,26.1c0-0.4-0.1-0.7-0.2-1c-0.2-0.3-0.4-0.4-0.8-0.4c-0.2,0-0.3,0-0.4,0.1c-0.1,0.1-0.2,0.2-0.3,0.3
		c-0.1,0.1-0.2,0.3-0.2,0.4c-0.1,0.2-0.1,0.3-0.2,0.5l-2.8,8.6h-1.2v-6.6c0-0.1,0-0.2,0.1-0.4l0.1-0.1c-0.1,0-0.1,0-0.2,0
		c-0.1,0-0.1,0-0.2,0c-0.3,0-0.5-0.1-0.7-0.2c-0.2-0.1-0.4-0.2-0.6-0.4c-0.2-0.2-0.3-0.4-0.4-0.6c-0.1-0.2-0.1-0.5-0.1-0.8
		c0-0.3,0-0.5,0.1-0.8c0.1-0.2,0.2-0.4,0.4-0.6s0.4-0.3,0.6-0.4c0.2-0.1,0.5-0.2,0.7-0.2c0.3,0,0.5,0.1,0.7,0.2
		c0.2,0.1,0.4,0.2,0.6,0.4s0.3,0.4,0.4,0.6c0.1,0.2,0.1,0.5,0.1,0.8c0,0.3,0,0.5-0.1,0.7c-0.1,0.2-0.1,0.4-0.2,0.5
		c-0.1,0.2-0.1,0.3-0.2,0.5s-0.1,0.4-0.1,0.7v2.7l-0.1,2.1h0.1l0.3-1.5l1.8-5.8c0.2-0.6,0.4-1,0.7-1.3s0.7-0.5,1.3-0.5
		c0.4,0,0.7,0.1,0.9,0.2s0.5,0.3,0.6,0.5s0.3,0.4,0.3,0.7c0.1,0.2,0.1,0.5,0.1,0.7v8.9h-1.1V26.1z M307.9,25.7
		c0-0.3-0.1-0.5-0.3-0.7c-0.2-0.2-0.4-0.3-0.6-0.3c-0.3,0-0.5,0.1-0.6,0.3s-0.3,0.5-0.3,0.7s0.1,0.5,0.3,0.7
		c0.2,0.2,0.4,0.3,0.6,0.3c0.3,0,0.5-0.1,0.6-0.3C307.8,26.2,307.9,26,307.9,25.7z"/>
	<path class="st0" d="M325.6,25.8c0,0.4-0.1,0.7-0.3,1s-0.4,0.5-0.6,0.7c0.2,0.2,0.3,0.4,0.5,0.6c0.1,0.2,0.2,0.6,0.2,0.9v5.7h-1.1
		v-5.5c0-0.4-0.1-0.7-0.2-0.9c-0.1-0.3-0.3-0.4-0.6-0.5c-0.3,0-0.5,0-0.7,0.2s-0.3,0.4-0.4,0.6l-3,6.1h-1.1v-6.6
		c0-0.1,0-0.2,0.1-0.4l0.1-0.1c-0.1,0-0.1,0-0.2,0c-0.1,0-0.1,0-0.2,0c-0.3,0-0.5-0.1-0.7-0.2c-0.2-0.1-0.4-0.2-0.6-0.4
		c-0.2-0.2-0.3-0.4-0.4-0.6c-0.1-0.2-0.1-0.5-0.1-0.8c0-0.3,0-0.5,0.1-0.8c0.1-0.2,0.2-0.4,0.4-0.6s0.4-0.3,0.6-0.4
		c0.2-0.1,0.5-0.2,0.7-0.2c0.3,0,0.5,0.1,0.7,0.2c0.2,0.1,0.4,0.2,0.6,0.4s0.3,0.4,0.4,0.6c0.1,0.2,0.1,0.5,0.1,0.8
		c0,0.3,0,0.5-0.1,0.7c-0.1,0.2-0.1,0.4-0.2,0.5c-0.1,0.2-0.1,0.3-0.2,0.5s-0.1,0.4-0.1,0.7v3.8c0,0.1,0,0.2,0,0.4s0,0.3,0,0.4
		l-0.1,0.5h0.1l0.4-1l1.8-3.9c0.1-0.3,0.3-0.4,0.4-0.6s0.3-0.2,0.4-0.3c-0.2-0.2-0.4-0.4-0.5-0.7c-0.1-0.3-0.2-0.6-0.2-0.9
		c0-0.3,0.1-0.6,0.2-0.8c0.1-0.2,0.2-0.5,0.4-0.6s0.4-0.3,0.6-0.4c0.2-0.1,0.5-0.2,0.8-0.2s0.5,0.1,0.8,0.2c0.2,0.1,0.4,0.2,0.6,0.4
		s0.3,0.4,0.4,0.6S325.6,25.5,325.6,25.8z M318.9,25.7c0-0.3-0.1-0.5-0.3-0.7c-0.2-0.2-0.4-0.3-0.6-0.3c-0.3,0-0.5,0.1-0.6,0.3
		s-0.3,0.5-0.3,0.7s0.1,0.5,0.3,0.7c0.2,0.2,0.4,0.3,0.6,0.3c0.3,0,0.5-0.1,0.6-0.3C318.9,26.2,318.9,26,318.9,25.7z M324.6,25.8
		c0-0.3-0.1-0.6-0.3-0.8c-0.2-0.2-0.4-0.3-0.7-0.3c-0.3,0-0.5,0.1-0.7,0.3c-0.2,0.2-0.3,0.5-0.3,0.8c0,0.3,0.1,0.6,0.3,0.8
		c0.2,0.2,0.4,0.3,0.7,0.3c0.3,0,0.5-0.1,0.7-0.3C324.5,26.3,324.6,26.1,324.6,25.8z"/>
	<path class="st0" d="M334.7,34.7c-0.2-1-0.4-2-0.7-2.8c-0.3-0.8-0.6-1.5-0.9-2.1s-0.7-1-1.1-1.3c-0.4-0.3-0.8-0.4-1.1-0.4
		c-0.3,0-0.5,0.1-0.8,0.4c-0.2,0.2-0.4,0.5-0.5,0.8c-0.1,0.3-0.3,0.7-0.3,1c-0.1,0.4-0.1,0.7-0.1,1c0.1-0.1,0.3-0.3,0.5-0.4
		c0.2-0.1,0.4-0.2,0.7-0.2c0.3,0,0.5,0.1,0.8,0.2c0.2,0.1,0.4,0.3,0.6,0.4c0.2,0.2,0.3,0.4,0.4,0.6c0.1,0.2,0.1,0.5,0.1,0.8
		c0,0.3-0.1,0.5-0.2,0.8c-0.1,0.2-0.2,0.5-0.4,0.6c-0.2,0.2-0.4,0.3-0.6,0.4c-0.2,0.1-0.5,0.2-0.7,0.2c-0.2,0-0.4,0-0.7-0.1
		c-0.3-0.1-0.5-0.3-0.7-0.5c-0.2-0.2-0.4-0.6-0.6-1c-0.2-0.4-0.2-1-0.2-1.7c0-0.5,0.1-1.1,0.2-1.6c0.1-0.5,0.3-1,0.5-1.3
		c0.2-0.4,0.5-0.7,0.9-1c0.3-0.3,0.7-0.4,1.1-0.4c0.4,0,0.8,0,1.2,0.2c0.4,0.2,0.7,0.4,1,0.7s0.5,0.7,0.8,1.1
		c0.2,0.4,0.4,0.8,0.6,1.2l0.5,1.7h0.1l-0.1-1c0-0.3,0-0.5-0.1-0.8c0-0.3,0-0.4,0-0.6v-2.2c0-0.4-0.1-0.7-0.2-1.1
		c-0.1-0.3-0.3-0.7-0.5-0.9c-0.2-0.3-0.5-0.5-0.9-0.7c-0.4-0.2-0.8-0.3-1.3-0.3c-0.4,0-0.8,0.1-1.1,0.2c-0.3,0.1-0.6,0.3-0.8,0.5
		c-0.2,0.2-0.4,0.4-0.6,0.7s-0.3,0.5-0.4,0.7l-1-0.3c0.1-0.4,0.3-0.7,0.6-1c0.2-0.3,0.5-0.6,0.9-0.9c0.3-0.3,0.7-0.5,1.1-0.6
		s0.9-0.2,1.4-0.2c0.6,0,1.1,0.1,1.6,0.2s0.9,0.4,1.3,0.7s0.6,0.7,0.8,1.1c0.2,0.5,0.3,1,0.3,1.6v7.3H334.7z M331.4,32.8
		c0-0.2,0-0.3-0.1-0.4s-0.1-0.3-0.2-0.4c-0.1-0.1-0.2-0.2-0.3-0.2c-0.1-0.1-0.3-0.1-0.4-0.1c-0.3,0-0.5,0.1-0.7,0.3
		c-0.2,0.2-0.3,0.5-0.3,0.8c0,0.3,0.1,0.6,0.3,0.8c0.2,0.2,0.4,0.3,0.7,0.3c0.3,0,0.5-0.1,0.7-0.3C331.3,33.4,331.4,33.1,331.4,32.8
		z"/>
	<path class="st0" d="M339.1,18.9c-0.1,0.5-0.2,1-0.4,1.4c-0.2,0.4-0.5,0.8-0.9,1.2c-0.4,0.3-0.8,0.6-1.4,0.8
		c-0.5,0.2-1.1,0.3-1.8,0.3c-0.5,0-0.9-0.1-1.3-0.2c-0.4-0.1-0.8-0.2-1.1-0.4c-0.3-0.2-0.6-0.4-0.7-0.7c-0.2-0.3-0.3-0.6-0.3-0.9
		c0-0.2,0-0.4,0.1-0.6c0.1-0.2,0.2-0.4,0.3-0.5c0.1-0.1,0.3-0.3,0.5-0.3c0.2-0.1,0.4-0.1,0.6-0.1c0.2,0,0.4,0,0.6,0.1
		c0.2,0.1,0.4,0.2,0.5,0.3c0.1,0.1,0.3,0.3,0.3,0.5c0.1,0.2,0.1,0.4,0.1,0.6c0,0.3-0.1,0.5-0.2,0.7c-0.1,0.2-0.3,0.4-0.4,0.5
		c0.6,0.1,1.1,0,1.6-0.1s0.9-0.3,1.3-0.5c0.4-0.2,0.7-0.5,0.9-0.9c0.2-0.4,0.4-0.8,0.4-1.3H339.1z M333.5,20.3
		c0-0.2-0.1-0.4-0.2-0.5s-0.3-0.2-0.5-0.2c-0.2,0-0.4,0.1-0.5,0.2s-0.2,0.3-0.2,0.5c0,0.2,0.1,0.4,0.2,0.5s0.3,0.2,0.5,0.2
		c0.2,0,0.4-0.1,0.5-0.2S333.5,20.5,333.5,20.3z"/>
	<path class="st0" d="M344.9,26.2c-0.1-0.3-0.3-0.6-0.6-0.9c-0.3-0.2-0.6-0.4-0.9-0.5c-0.4-0.1-0.8-0.2-1.2-0.2
		c-0.3,0-0.6,0-0.9,0.1s-0.5,0.1-0.7,0.2c-0.2,0.1-0.5,0.2-0.7,0.3c-0.2,0.1-0.5,0.3-0.7,0.4c0.7,0.1,1.2,0.2,1.7,0.3
		s0.9,0.3,1.2,0.4v0.8c-0.3,0-0.6,0.1-0.9,0.3c-0.3,0.1-0.5,0.3-0.7,0.5c-0.2,0.2-0.3,0.5-0.4,0.7c-0.1,0.3-0.2,0.6-0.2,0.9v5.1
		h-1.1v-5c0-0.3,0-0.6,0.1-0.9c0.1-0.3,0.2-0.6,0.4-0.8s0.4-0.5,0.6-0.7c0.3-0.2,0.6-0.4,0.9-0.5c-0.6-0.2-1.1-0.3-1.6-0.4
		c-0.5-0.1-0.9-0.1-1.3-0.1v-0.8c0.3-0.2,0.6-0.3,0.8-0.5c0.3-0.2,0.6-0.4,0.9-0.6s0.7-0.3,1.1-0.5c0.4-0.1,0.9-0.2,1.4-0.2
		c0.5,0,1,0.1,1.5,0.2s0.9,0.4,1.3,0.7c0.4,0.3,0.6,0.6,0.8,1.1c0.2,0.4,0.3,0.9,0.3,1.4v7.6h-1.1v-7.3
		C345.1,26.9,345.1,26.5,344.9,26.2z"/>
	<path class="st0" d="M356.2,26.1c0-0.4-0.1-0.7-0.2-1c-0.2-0.3-0.4-0.4-0.8-0.4c-0.2,0-0.3,0-0.4,0.1c-0.1,0.1-0.2,0.2-0.3,0.3
		c-0.1,0.1-0.2,0.3-0.2,0.4c-0.1,0.2-0.1,0.3-0.2,0.5l-2.8,8.6h-1.2v-6.6c0-0.1,0-0.2,0.1-0.4l0.1-0.1c-0.1,0-0.1,0-0.2,0
		c-0.1,0-0.1,0-0.2,0c-0.3,0-0.5-0.1-0.7-0.2c-0.2-0.1-0.4-0.2-0.6-0.4c-0.2-0.2-0.3-0.4-0.4-0.6c-0.1-0.2-0.1-0.5-0.1-0.8
		c0-0.3,0-0.5,0.1-0.8c0.1-0.2,0.2-0.4,0.4-0.6s0.4-0.3,0.6-0.4c0.2-0.1,0.5-0.2,0.7-0.2c0.3,0,0.5,0.1,0.7,0.2
		c0.2,0.1,0.4,0.2,0.6,0.4c0.2,0.2,0.3,0.4,0.4,0.6c0.1,0.2,0.1,0.5,0.1,0.8c0,0.3,0,0.5-0.1,0.7s-0.1,0.4-0.2,0.5s-0.1,0.3-0.2,0.5
		c-0.1,0.2-0.1,0.4-0.1,0.7v2.7l-0.1,2.1h0.1l0.3-1.5l1.8-5.8c0.2-0.6,0.4-1,0.7-1.3s0.7-0.5,1.3-0.5c0.4,0,0.7,0.1,0.9,0.2
		s0.5,0.3,0.6,0.5c0.2,0.2,0.3,0.4,0.3,0.7c0.1,0.2,0.1,0.5,0.1,0.7v8.9h-1.1V26.1z M350.7,25.7c0-0.3-0.1-0.5-0.3-0.7
		c-0.2-0.2-0.4-0.3-0.6-0.3c-0.3,0-0.5,0.1-0.6,0.3s-0.3,0.5-0.3,0.7s0.1,0.5,0.3,0.7c0.2,0.2,0.4,0.3,0.6,0.3
		c0.3,0,0.5-0.1,0.6-0.3C350.6,26.2,350.7,26,350.7,25.7z"/>
	<path class="st0" d="M367.1,24.6c-0.2,0.2-0.4,0.4-0.7,0.6c-0.2,0.1-0.5,0.2-0.9,0.2c-0.3,0-0.5,0-0.7-0.1
		c-0.2-0.1-0.4-0.1-0.6-0.2c-0.2-0.1-0.4-0.2-0.6-0.3c-0.2-0.1-0.5-0.1-0.8-0.1s-0.6,0-0.8,0.1c-0.2,0.1-0.5,0.2-0.7,0.3
		c-0.2,0.1-0.4,0.3-0.6,0.4s-0.3,0.3-0.5,0.4c0.4,0,0.8,0,1.3,0c0.4,0,0.9,0.1,1.3,0.1c0.4,0.1,0.8,0.2,1.2,0.3
		c0.4,0.1,0.7,0.3,1,0.5c0.3,0.2,0.5,0.5,0.7,0.8c0.2,0.3,0.3,0.7,0.3,1.1v4.2c0,0.3-0.1,0.5-0.2,0.8c-0.1,0.2-0.2,0.4-0.4,0.6
		c-0.2,0.2-0.4,0.3-0.6,0.4c-0.2,0.1-0.5,0.2-0.8,0.2s-0.5-0.1-0.8-0.2c-0.2-0.1-0.4-0.2-0.6-0.4c-0.2-0.2-0.3-0.4-0.4-0.6
		c-0.1-0.2-0.2-0.5-0.2-0.8c0-0.3,0.1-0.5,0.2-0.8c0.1-0.2,0.2-0.4,0.4-0.6c0.2-0.2,0.4-0.3,0.6-0.4c0.2-0.1,0.5-0.2,0.8-0.2
		c0.1,0,0.3,0,0.4,0.1c0.1,0,0.3,0.1,0.4,0.1V29c0-0.4-0.1-0.8-0.3-1c-0.2-0.3-0.5-0.5-0.9-0.7s-0.8-0.3-1.2-0.4
		c-0.5-0.1-0.9-0.1-1.3-0.2c-0.4,0-0.9,0-1.3,0c-0.4,0-0.8,0-1.1,0v-0.8c0.3-0.2,0.5-0.4,0.8-0.7c0.2-0.3,0.5-0.5,0.8-0.7
		c0.3-0.2,0.6-0.4,1-0.5c0.4-0.1,0.8-0.2,1.3-0.2c0.4,0,0.7,0,0.9,0.1c0.2,0.1,0.5,0.2,0.7,0.2c0.2,0.1,0.4,0.2,0.5,0.2
		c0.2,0.1,0.3,0.1,0.5,0.1c0.2,0,0.4-0.1,0.6-0.2s0.3-0.2,0.4-0.3L367.1,24.6z M365.2,32.9c0-0.3-0.1-0.6-0.3-0.8
		c-0.2-0.2-0.4-0.3-0.7-0.3c-0.3,0-0.5,0.1-0.7,0.3c-0.2,0.2-0.3,0.5-0.3,0.8c0,0.3,0.1,0.6,0.3,0.8c0.2,0.2,0.4,0.3,0.7,0.3
		c0.3,0,0.5-0.1,0.7-0.3C365.1,33.4,365.2,33.2,365.2,32.9z"/>
	<path class="st0" d="M369.5,18.9c-0.1,0.5-0.2,1-0.4,1.4s-0.5,0.8-0.9,1.2s-0.8,0.6-1.4,0.8c-0.5,0.2-1.1,0.3-1.8,0.3
		c-0.5,0-0.9-0.1-1.3-0.2c-0.4-0.1-0.8-0.2-1.1-0.4s-0.6-0.4-0.7-0.7c-0.2-0.3-0.3-0.6-0.3-0.9c0-0.2,0-0.4,0.1-0.6
		c0.1-0.2,0.2-0.4,0.3-0.5s0.3-0.3,0.5-0.3c0.2-0.1,0.4-0.1,0.6-0.1c0.2,0,0.4,0,0.6,0.1c0.2,0.1,0.4,0.2,0.5,0.3
		c0.1,0.1,0.3,0.3,0.3,0.5c0.1,0.2,0.1,0.4,0.1,0.6c0,0.3-0.1,0.5-0.2,0.7c-0.1,0.2-0.3,0.4-0.4,0.5c0.6,0.1,1.1,0,1.6-0.1
		s0.9-0.3,1.3-0.5c0.4-0.2,0.7-0.5,0.9-0.9c0.2-0.4,0.4-0.8,0.4-1.3H369.5z M364,20.3c0-0.2-0.1-0.4-0.2-0.5
		c-0.1-0.2-0.3-0.2-0.5-0.2c-0.2,0-0.4,0.1-0.5,0.2c-0.1,0.2-0.2,0.3-0.2,0.5c0,0.2,0.1,0.4,0.2,0.5c0.1,0.1,0.3,0.2,0.5,0.2
		c0.2,0,0.4-0.1,0.5-0.2C363.9,20.7,364,20.5,364,20.3z"/>
	<path class="st0" d="M371.3,34.7h-1.1v-6.6c0-0.1,0-0.2,0.1-0.4l0.1-0.1c-0.1,0-0.1,0-0.2,0s-0.1,0-0.2,0c-0.3,0-0.5-0.1-0.7-0.2
		c-0.2-0.1-0.4-0.2-0.6-0.4c-0.2-0.2-0.3-0.4-0.4-0.6c-0.1-0.2-0.1-0.5-0.1-0.8c0-0.3,0-0.5,0.1-0.8c0.1-0.2,0.2-0.4,0.4-0.6
		c0.2-0.2,0.4-0.3,0.6-0.4c0.2-0.1,0.5-0.2,0.7-0.2s0.5,0.1,0.7,0.2c0.2,0.1,0.4,0.2,0.6,0.4c0.2,0.2,0.3,0.4,0.4,0.6
		c0.1,0.2,0.1,0.5,0.1,0.8c0,0.3,0,0.5-0.1,0.7s-0.1,0.4-0.2,0.5c-0.1,0.2-0.1,0.3-0.2,0.5c-0.1,0.2-0.1,0.4-0.1,0.7v2l-0.1,2.4
		l0.4-1.8l2-6.8h0.9l2.1,6.7l0.4,1.8L377,30v-6.1h1.1v10.8h-1.1l-2.8-9.2L371.3,34.7z M370.8,25.7c0-0.3-0.1-0.5-0.3-0.7
		c-0.2-0.2-0.4-0.3-0.6-0.3s-0.5,0.1-0.6,0.3s-0.3,0.5-0.3,0.7s0.1,0.5,0.3,0.7c0.2,0.2,0.4,0.3,0.6,0.3s0.5-0.1,0.6-0.3
		C370.8,26.2,370.8,26,370.8,25.7z"/>
	<path class="st0" d="M388.6,32.3c0,0.7-0.2,1.3-0.7,1.7c-0.5,0.4-1.1,0.6-1.9,0.6h-5v-3c0-0.3,0-0.5,0.1-0.8
		c0.1-0.3,0.2-0.5,0.4-0.7s0.3-0.4,0.6-0.6c0.2-0.2,0.5-0.3,0.8-0.4c-0.3,0-0.5-0.1-0.8-0.3c-0.3-0.1-0.5-0.3-0.7-0.6
		c-0.2-0.3-0.4-0.6-0.6-0.9c-0.1-0.4-0.2-0.8-0.2-1.3c0-0.3,0.1-0.6,0.2-0.9c0.1-0.3,0.3-0.5,0.4-0.7c0.2-0.2,0.4-0.4,0.7-0.5
		c0.3-0.1,0.5-0.2,0.8-0.2c0.3,0,0.5,0,0.8,0.1c0.2,0.1,0.5,0.2,0.6,0.4c0.2,0.2,0.3,0.4,0.4,0.6c0.1,0.2,0.2,0.5,0.2,0.8
		c0,0.3-0.1,0.5-0.2,0.7c-0.1,0.2-0.2,0.4-0.4,0.6c-0.2,0.2-0.4,0.3-0.6,0.4c-0.2,0.1-0.5,0.1-0.7,0.1c-0.4,0-0.7-0.1-0.8-0.2
		c0,0.2,0.1,0.4,0.3,0.6c0.2,0.2,0.4,0.3,0.7,0.4c0.3,0.1,0.6,0.2,1,0.3c0.4,0,0.7,0.1,1.1,0v1h-1c-0.3,0-0.6,0.1-0.8,0.2
		c-0.2,0.1-0.4,0.3-0.6,0.5c-0.2,0.2-0.3,0.5-0.4,0.8s-0.1,0.6-0.1,0.9v1.7h3.4c0.7,0,1.2-0.1,1.5-0.4c0.3-0.3,0.5-0.8,0.5-1.4v-8
		h1.1V32.3z M383.6,25.6c0-0.3-0.1-0.5-0.3-0.7c-0.2-0.2-0.4-0.3-0.7-0.3s-0.5,0.1-0.7,0.3c-0.2,0.2-0.3,0.4-0.3,0.7
		c0,0.3,0.1,0.5,0.3,0.7c0.2,0.2,0.4,0.3,0.7,0.3s0.5-0.1,0.7-0.3C383.5,26.1,383.6,25.9,383.6,25.6z"/>
	<path class="st0" d="M389.7,18c-0.1,0.3-0.3,0.5-0.5,0.7s-0.5,0.3-0.7,0.4c-0.3,0.1-0.5,0.2-0.8,0.3c-0.3,0.1-0.4,0.1-0.6,0.2
		c0.2,0,0.4,0.1,0.5,0.2c0.1,0.1,0.3,0.2,0.4,0.3s0.2,0.3,0.2,0.4c0,0.1,0.1,0.3,0.1,0.4c0,0.2,0,0.3-0.1,0.5
		c-0.1,0.2-0.2,0.3-0.3,0.4s-0.3,0.2-0.4,0.3c-0.2,0.1-0.3,0.1-0.5,0.1c-0.2,0-0.4,0-0.5-0.1c-0.2-0.1-0.3-0.2-0.5-0.3
		c-0.1-0.1-0.2-0.3-0.3-0.5c-0.1-0.2-0.1-0.4-0.1-0.6c0-0.4,0.2-0.8,0.4-1.2c0.3-0.3,0.7-0.6,1.3-0.8c0.4-0.1,0.7-0.3,1-0.5
		c0.3-0.2,0.5-0.4,0.6-0.7L389.7,18z M387.5,20.9c0-0.2-0.1-0.3-0.2-0.5s-0.3-0.2-0.5-0.2c-0.2,0-0.3,0.1-0.4,0.2s-0.2,0.3-0.2,0.5
		s0.1,0.3,0.2,0.5c0.1,0.1,0.3,0.2,0.4,0.2c0.2,0,0.3-0.1,0.5-0.2C387.5,21.2,387.5,21.1,387.5,20.9z"/>
	<path class="st0" d="M397.2,34.7c-0.2-0.7-0.6-1.5-1-2.3c-0.4-0.8-0.8-1.5-1.2-2.1c-0.1,0.1-0.1,0.3-0.2,0.4
		c-0.1,0.1-0.2,0.3-0.4,0.4c-0.1,0.1-0.3,0.2-0.5,0.3c-0.2,0.1-0.3,0.1-0.5,0.1c-0.2,0-0.5,0-0.7-0.1c-0.2-0.1-0.4-0.2-0.6-0.4
		c-0.2-0.2-0.3-0.4-0.4-0.6c-0.1-0.2-0.2-0.5-0.2-0.8c0-0.2,0-0.5,0.1-0.7c0.1-0.2,0.2-0.4,0.4-0.6s0.4-0.3,0.6-0.4
		c0.2-0.1,0.4-0.1,0.7-0.1c0.4,0,0.8,0.1,1.1,0.3s0.6,0.5,0.9,0.9c0.1,0.1,0.2,0.3,0.4,0.6s0.3,0.5,0.4,0.7c0.2,0.3,0.3,0.5,0.4,0.8
		c0.1,0.3,0.3,0.5,0.4,0.8l0.4,1.1l-0.1-1.4v-4c0-0.4-0.1-0.8-0.2-1.2c-0.1-0.4-0.4-0.7-0.6-0.9c-0.3-0.3-0.6-0.5-0.9-0.6
		c-0.3-0.1-0.7-0.2-1.1-0.2c-0.4,0-0.8,0.1-1.1,0.2c-0.3,0.1-0.6,0.3-0.9,0.5c-0.3,0.2-0.5,0.5-0.7,0.8s-0.4,0.6-0.5,1l-1-0.3
		c0.1-0.4,0.4-0.8,0.6-1.2c0.3-0.4,0.6-0.7,1-1c0.4-0.3,0.8-0.5,1.2-0.7s0.9-0.3,1.5-0.3s1,0.1,1.5,0.2s0.9,0.4,1.3,0.7
		c0.4,0.3,0.6,0.7,0.9,1.2s0.3,1,0.3,1.6v7.2H397.2z M394.2,29.7c0-0.3-0.1-0.5-0.2-0.7c-0.2-0.2-0.4-0.3-0.6-0.3
		c-0.2,0-0.4,0.1-0.6,0.3c-0.2,0.2-0.2,0.4-0.2,0.7c0,0.2,0.1,0.5,0.2,0.6c0.2,0.2,0.4,0.3,0.6,0.3c0.1,0,0.2,0,0.3-0.1
		c0.1-0.1,0.2-0.1,0.3-0.2c0.1-0.1,0.1-0.2,0.2-0.3C394.2,29.9,394.2,29.8,394.2,29.7z"/>
	<path class="st0" d="M401.5,18.9c-0.1,0.5-0.2,1-0.4,1.4s-0.5,0.8-0.9,1.2s-0.8,0.6-1.4,0.8c-0.5,0.2-1.1,0.3-1.8,0.3
		c-0.5,0-0.9-0.1-1.3-0.2c-0.4-0.1-0.8-0.2-1.1-0.4s-0.6-0.4-0.7-0.7c-0.2-0.3-0.3-0.6-0.3-0.9c0-0.2,0-0.4,0.1-0.6
		c0.1-0.2,0.2-0.4,0.3-0.5s0.3-0.3,0.5-0.3c0.2-0.1,0.4-0.1,0.6-0.1c0.2,0,0.4,0,0.6,0.1c0.2,0.1,0.4,0.2,0.5,0.3
		c0.1,0.1,0.3,0.3,0.3,0.5c0.1,0.2,0.1,0.4,0.1,0.6c0,0.3-0.1,0.5-0.2,0.7c-0.1,0.2-0.3,0.4-0.4,0.5c0.6,0.1,1.1,0,1.6-0.1
		s0.9-0.3,1.3-0.5c0.4-0.2,0.7-0.5,0.9-0.9c0.2-0.4,0.4-0.8,0.4-1.3H401.5z M395.9,20.3c0-0.2-0.1-0.4-0.2-0.5
		c-0.1-0.2-0.3-0.2-0.5-0.2c-0.2,0-0.4,0.1-0.5,0.2c-0.1,0.2-0.2,0.3-0.2,0.5c0,0.2,0.1,0.4,0.2,0.5c0.1,0.1,0.3,0.2,0.5,0.2
		c0.2,0,0.4-0.1,0.5-0.2C395.9,20.7,395.9,20.5,395.9,20.3z"/>
	<path class="st0" d="M407.9,27.6c0-0.4-0.1-0.7-0.2-1.1c-0.1-0.3-0.3-0.7-0.6-0.9s-0.6-0.5-1-0.7s-0.9-0.2-1.4-0.2
		c-0.4,0-0.8,0.1-1.2,0.2s-0.7,0.4-0.9,0.6c-0.3,0.3-0.5,0.5-0.6,0.9c-0.1,0.3-0.2,0.6-0.2,1c0,0.3,0,0.7,0.1,1
		c0.1,0.3,0.1,0.7,0.2,1.1c0.1,0.4,0.2,0.8,0.2,1.2c0.1,0.4,0.1,0.9,0.2,1.5c0,0.1,0,0.2,0,0.4s0,0.3,0,0.4c0,0.1,0,0.2,0,0.3
		c0,0.1,0,0.2,0,0.2c0-0.1,0.1-0.2,0.2-0.4c0.1-0.2,0.1-0.3,0.2-0.4c0.2-0.3,0.4-0.6,0.5-0.8s0.4-0.5,0.5-0.7l0.5-0.7
		c-0.5-0.1-0.8-0.3-1-0.6c-0.2-0.3-0.4-0.7-0.4-1.2c0-0.2,0-0.5,0.1-0.7s0.2-0.4,0.4-0.6c0.2-0.2,0.3-0.3,0.5-0.4
		c0.2-0.1,0.4-0.1,0.7-0.1c0.2,0,0.5,0,0.7,0.1c0.2,0.1,0.4,0.2,0.6,0.4s0.3,0.3,0.4,0.6s0.1,0.5,0.1,0.7c0,0.3-0.1,0.6-0.2,0.9
		c-0.2,0.3-0.3,0.5-0.5,0.7c-0.3,0.4-0.6,0.7-0.9,1.2c-0.3,0.4-0.6,0.8-0.9,1.2c-0.3,0.4-0.6,0.8-0.8,1.2s-0.4,0.7-0.6,0.9h-1.1
		c0-0.2,0-0.4,0-0.6c0-0.2,0-0.5,0-0.8s0-0.6,0-0.9c0-0.3,0-0.6-0.1-0.9c0-0.4-0.1-0.7-0.2-1s-0.2-0.7-0.3-1s-0.2-0.7-0.2-1.1
		c-0.1-0.4-0.1-0.8-0.1-1.3c0-0.5,0.1-0.9,0.3-1.3c0.2-0.4,0.5-0.8,0.9-1.1s0.8-0.5,1.3-0.7c0.5-0.2,1-0.3,1.5-0.3
		c0.6,0,1.1,0.1,1.6,0.2c0.5,0.2,1,0.4,1.3,0.7s0.7,0.7,0.9,1.2c0.2,0.5,0.3,1,0.3,1.6v7.3h-1.1V27.6z M405.7,28.7
		c0-0.3-0.1-0.5-0.2-0.7c-0.2-0.2-0.4-0.3-0.6-0.3c-0.2,0-0.4,0.1-0.6,0.3c-0.2,0.2-0.2,0.4-0.2,0.6c0,0.3,0.1,0.5,0.2,0.7
		c0.2,0.2,0.4,0.3,0.6,0.3s0.4-0.1,0.6-0.3C405.6,29.1,405.7,28.9,405.7,28.7z"/>
	<path class="st0" d="M418.1,26.2c-0.1-0.3-0.3-0.6-0.6-0.9c-0.3-0.2-0.6-0.4-0.9-0.5c-0.4-0.1-0.8-0.2-1.2-0.2
		c-0.3,0-0.6,0-0.9,0.1s-0.5,0.1-0.7,0.2c-0.2,0.1-0.5,0.2-0.7,0.3s-0.5,0.3-0.7,0.4c0.7,0.1,1.2,0.2,1.7,0.3
		c0.5,0.1,0.9,0.3,1.2,0.4v0.8c-0.3,0-0.6,0.1-0.9,0.3c-0.3,0.1-0.5,0.3-0.7,0.5c-0.2,0.2-0.3,0.5-0.4,0.7c-0.1,0.3-0.2,0.6-0.2,0.9
		v5.1H412v-5c0-0.3,0-0.6,0.1-0.9c0.1-0.3,0.2-0.6,0.4-0.8s0.4-0.5,0.6-0.7c0.3-0.2,0.6-0.4,0.9-0.5c-0.6-0.2-1.1-0.3-1.6-0.4
		c-0.5-0.1-0.9-0.1-1.3-0.1v-0.8c0.3-0.2,0.6-0.3,0.8-0.5c0.3-0.2,0.6-0.4,0.9-0.6c0.3-0.2,0.7-0.3,1.1-0.5c0.4-0.1,0.9-0.2,1.4-0.2
		c0.5,0,1,0.1,1.5,0.2c0.5,0.2,0.9,0.4,1.2,0.7s0.6,0.6,0.8,1.1c0.2,0.4,0.3,0.9,0.3,1.4v7.6h-1.1v-7.3
		C418.3,26.9,418.2,26.5,418.1,26.2z"/>
	<path class="st0" d="M426.4,25.4c-0.4-0.5-1.1-0.7-1.9-0.7c-0.3,0-0.6,0.1-0.9,0.2c-0.3,0.1-0.5,0.2-0.8,0.4
		c-0.2,0.2-0.4,0.4-0.6,0.7c-0.2,0.3-0.3,0.6-0.4,0.9l-1-0.4c0.1-0.4,0.3-0.7,0.5-1c0.2-0.3,0.5-0.6,0.8-0.9
		c0.3-0.2,0.7-0.4,1.1-0.6c0.4-0.1,0.8-0.2,1.2-0.2c0.6,0,1.1,0.1,1.5,0.2s0.8,0.4,1.2,0.7c0.3,0.3,0.6,0.6,0.7,1.1
		c0.2,0.4,0.3,0.9,0.3,1.5v7.6h-1.1v-7.4C427.1,26.5,426.9,25.8,426.4,25.4z"/>
	<path class="st0" d="M438,24.6c-0.2,0.2-0.4,0.4-0.7,0.6c-0.2,0.1-0.5,0.2-0.9,0.2c-0.3,0-0.5,0-0.7-0.1c-0.2-0.1-0.4-0.1-0.6-0.2
		c-0.2-0.1-0.4-0.2-0.6-0.3c-0.2-0.1-0.5-0.1-0.8-0.1s-0.6,0-0.8,0.1c-0.2,0.1-0.5,0.2-0.7,0.3c-0.2,0.1-0.4,0.3-0.6,0.4
		s-0.3,0.3-0.5,0.4c0.4,0,0.8,0,1.3,0c0.4,0,0.9,0.1,1.3,0.1c0.4,0.1,0.8,0.2,1.2,0.3c0.4,0.1,0.7,0.3,1,0.5
		c0.3,0.2,0.5,0.5,0.7,0.8c0.2,0.3,0.3,0.7,0.3,1.1v4.2c0,0.3-0.1,0.5-0.2,0.8c-0.1,0.2-0.2,0.4-0.4,0.6c-0.2,0.2-0.4,0.3-0.6,0.4
		c-0.2,0.1-0.5,0.2-0.8,0.2s-0.5-0.1-0.8-0.2c-0.2-0.1-0.4-0.2-0.6-0.4c-0.2-0.2-0.3-0.4-0.4-0.6c-0.1-0.2-0.2-0.5-0.2-0.8
		c0-0.3,0.1-0.5,0.2-0.8c0.1-0.2,0.2-0.4,0.4-0.6c0.2-0.2,0.4-0.3,0.6-0.4c0.2-0.1,0.5-0.2,0.8-0.2c0.1,0,0.3,0,0.4,0.1
		c0.1,0,0.3,0.1,0.4,0.1V29c0-0.4-0.1-0.8-0.3-1c-0.2-0.3-0.5-0.5-0.9-0.7s-0.8-0.3-1.2-0.4c-0.5-0.1-0.9-0.1-1.3-0.2
		c-0.4,0-0.9,0-1.3,0c-0.4,0-0.8,0-1.1,0v-0.8c0.3-0.2,0.5-0.4,0.8-0.7c0.2-0.3,0.5-0.5,0.8-0.7c0.3-0.2,0.6-0.4,1-0.5
		c0.4-0.1,0.8-0.2,1.3-0.2c0.4,0,0.7,0,0.9,0.1c0.2,0.1,0.5,0.2,0.7,0.2c0.2,0.1,0.4,0.2,0.5,0.2c0.2,0.1,0.3,0.1,0.5,0.1
		c0.2,0,0.4-0.1,0.6-0.2s0.3-0.2,0.4-0.3L438,24.6z M436.1,32.9c0-0.3-0.1-0.6-0.3-0.8c-0.2-0.2-0.4-0.3-0.7-0.3
		c-0.3,0-0.5,0.1-0.7,0.3c-0.2,0.2-0.3,0.5-0.3,0.8c0,0.3,0.1,0.6,0.3,0.8c0.2,0.2,0.4,0.3,0.7,0.3c0.3,0,0.5-0.1,0.7-0.3
		C436,33.4,436.1,33.2,436.1,32.9z"/>
	<path class="st0" d="M446.3,26.2c-0.1-0.3-0.3-0.6-0.6-0.9c-0.3-0.2-0.6-0.4-0.9-0.5c-0.4-0.1-0.8-0.2-1.2-0.2
		c-0.3,0-0.6,0-0.9,0.1s-0.5,0.1-0.7,0.2c-0.2,0.1-0.5,0.2-0.7,0.3s-0.5,0.3-0.7,0.4c0.7,0.1,1.2,0.2,1.7,0.3
		c0.5,0.1,0.9,0.3,1.2,0.4v0.8c-0.3,0-0.6,0.1-0.9,0.3c-0.3,0.1-0.5,0.3-0.7,0.5c-0.2,0.2-0.3,0.5-0.4,0.7c-0.1,0.3-0.2,0.6-0.2,0.9
		v5.1h-1.1v-5c0-0.3,0-0.6,0.1-0.9c0.1-0.3,0.2-0.6,0.4-0.8s0.4-0.5,0.6-0.7c0.3-0.2,0.6-0.4,0.9-0.5c-0.6-0.2-1.1-0.3-1.6-0.4
		c-0.5-0.1-0.9-0.1-1.3-0.1v-0.8c0.3-0.2,0.6-0.3,0.8-0.5c0.3-0.2,0.6-0.4,0.9-0.6c0.3-0.2,0.7-0.3,1.1-0.5c0.4-0.1,0.9-0.2,1.4-0.2
		c0.5,0,1,0.1,1.5,0.2c0.5,0.2,0.9,0.4,1.2,0.7s0.6,0.6,0.8,1.1c0.2,0.4,0.3,0.9,0.3,1.4v7.6h-1.1v-7.3
		C446.5,26.9,446.4,26.5,446.3,26.2z"/>
	<path class="st0" d="M458,32.3c0,0.8-0.2,1.4-0.5,1.8c-0.4,0.4-1,0.6-1.8,0.6h-5v-5.6c0-0.3,0-0.5,0.1-0.8c0.1-0.2,0.2-0.4,0.4-0.6
		c0.2-0.2,0.4-0.3,0.6-0.4s0.5-0.1,0.7-0.1s0.5,0.1,0.7,0.2c0.2,0.1,0.4,0.2,0.6,0.4s0.3,0.4,0.4,0.6c0.1,0.2,0.1,0.5,0.1,0.8
		c0,0.3,0,0.5-0.1,0.8c-0.1,0.2-0.2,0.4-0.4,0.6c-0.2,0.2-0.4,0.3-0.6,0.4c-0.2,0.1-0.5,0.1-0.7,0.1c-0.2,0-0.4,0-0.5-0.1
		c-0.1,0-0.2-0.1-0.3-0.1v2.9h3.5c0.4,0,0.7,0,0.9-0.1c0.2-0.1,0.4-0.2,0.5-0.3s0.2-0.3,0.2-0.5c0-0.2,0.1-0.5,0.1-0.8v-4.8
		c0-0.4-0.1-0.8-0.2-1.1s-0.4-0.6-0.6-0.8c-0.3-0.2-0.6-0.4-0.9-0.5c-0.4-0.1-0.8-0.2-1.2-0.2c-0.4,0-0.9,0.1-1.2,0.2
		s-0.7,0.3-1,0.5c-0.3,0.2-0.5,0.4-0.7,0.7c-0.2,0.3-0.4,0.5-0.5,0.8l-1-0.4c0.2-0.4,0.4-0.7,0.6-1s0.6-0.6,0.9-0.9
		c0.4-0.3,0.8-0.5,1.3-0.6c0.5-0.1,1-0.2,1.6-0.2c0.6,0,1.1,0.1,1.6,0.2c0.5,0.2,0.9,0.4,1.3,0.7s0.6,0.7,0.8,1.1
		c0.2,0.4,0.3,0.9,0.3,1.5V32.3z M453.4,29c0-0.3-0.1-0.5-0.3-0.7c-0.2-0.2-0.4-0.3-0.7-0.3s-0.5,0.1-0.6,0.3
		c-0.2,0.2-0.3,0.5-0.3,0.7c0,0.3,0.1,0.5,0.3,0.7c0.2,0.2,0.4,0.3,0.6,0.3s0.5-0.1,0.7-0.3C453.3,29.6,453.4,29.3,453.4,29z"/>
	<path class="st0" d="M460.3,26.8l5.4,6.4v-5.7c-0.1,0.1-0.2,0.1-0.4,0.2c-0.2,0-0.3,0.1-0.5,0.1c-0.3,0-0.5-0.1-0.7-0.2
		s-0.4-0.3-0.6-0.4c-0.2-0.2-0.3-0.4-0.4-0.6c-0.1-0.2-0.2-0.5-0.2-0.8c0-0.3,0-0.6,0.1-0.8c0.1-0.2,0.2-0.5,0.4-0.6
		s0.4-0.3,0.6-0.4c0.2-0.1,0.5-0.2,0.8-0.2c0.3,0,0.5,0.1,0.8,0.2c0.2,0.1,0.4,0.2,0.6,0.4c0.2,0.2,0.3,0.4,0.4,0.6
		c0.1,0.2,0.2,0.5,0.2,0.8v8.9h-1.1l-6.1-7.2L460.3,26.8z M465.7,25.8c0-0.3-0.1-0.6-0.3-0.8c-0.2-0.2-0.4-0.3-0.7-0.3
		s-0.5,0.1-0.7,0.3c-0.2,0.2-0.3,0.5-0.3,0.8s0.1,0.6,0.3,0.8c0.2,0.2,0.4,0.3,0.7,0.3s0.5-0.1,0.7-0.3
		C465.6,26.3,465.7,26.1,465.7,25.8z"/>
	<path class="st0" d="M476.7,26.1c0-0.4-0.1-0.7-0.2-1c-0.2-0.3-0.4-0.4-0.8-0.4c-0.2,0-0.3,0-0.4,0.1c-0.1,0.1-0.2,0.2-0.3,0.3
		c-0.1,0.1-0.2,0.3-0.2,0.4c-0.1,0.2-0.1,0.3-0.2,0.5l-2.8,8.6h-1.2v-6.6c0-0.1,0-0.2,0.1-0.4l0.1-0.1c-0.1,0-0.1,0-0.2,0
		s-0.1,0-0.2,0c-0.3,0-0.5-0.1-0.7-0.2c-0.2-0.1-0.4-0.2-0.6-0.4c-0.2-0.2-0.3-0.4-0.4-0.6c-0.1-0.2-0.1-0.5-0.1-0.8
		c0-0.3,0-0.5,0.1-0.8c0.1-0.2,0.2-0.4,0.4-0.6c0.2-0.2,0.4-0.3,0.6-0.4c0.2-0.1,0.5-0.2,0.7-0.2s0.5,0.1,0.7,0.2
		c0.2,0.1,0.4,0.2,0.6,0.4c0.2,0.2,0.3,0.4,0.4,0.6c0.1,0.2,0.1,0.5,0.1,0.8c0,0.3,0,0.5-0.1,0.7s-0.1,0.4-0.2,0.5
		c-0.1,0.2-0.1,0.3-0.2,0.5c-0.1,0.2-0.1,0.4-0.1,0.7v2.7l-0.1,2.1h0.1l0.3-1.5l1.8-5.8c0.2-0.6,0.4-1,0.7-1.3
		c0.3-0.3,0.7-0.5,1.3-0.5c0.4,0,0.7,0.1,0.9,0.2c0.3,0.1,0.5,0.3,0.6,0.5c0.2,0.2,0.3,0.4,0.3,0.7c0.1,0.2,0.1,0.5,0.1,0.7v8.9
		h-1.1V26.1z M471.3,25.7c0-0.3-0.1-0.5-0.3-0.7c-0.2-0.2-0.4-0.3-0.6-0.3s-0.5,0.1-0.6,0.3s-0.3,0.5-0.3,0.7s0.1,0.5,0.3,0.7
		c0.2,0.2,0.4,0.3,0.6,0.3s0.5-0.1,0.6-0.3C471.2,26.2,471.3,26,471.3,25.7z"/>
	<path class="st0" d="M476.7,38.9c-0.1,0-0.2,0.1-0.4,0.1c-0.2,0-0.4,0-0.6-0.1c-0.2-0.1-0.3-0.2-0.5-0.3s-0.2-0.3-0.3-0.5
		c-0.1-0.2-0.1-0.4-0.1-0.6c0-0.2,0-0.4,0.1-0.6c0.1-0.2,0.2-0.4,0.3-0.5s0.3-0.3,0.5-0.3c0.2-0.1,0.4-0.1,0.6-0.1
		c0.2,0,0.4,0,0.6,0.1c0.2,0.1,0.3,0.2,0.5,0.3c0.1,0.1,0.2,0.3,0.3,0.5c0.1,0.2,0.1,0.4,0.1,0.6v3.3h-1.1V38.9z M476.9,37.4
		c0-0.2-0.1-0.4-0.2-0.5c-0.1-0.2-0.3-0.2-0.5-0.2c-0.2,0-0.3,0.1-0.5,0.2s-0.2,0.3-0.2,0.5s0.1,0.4,0.2,0.5
		c0.1,0.1,0.3,0.2,0.5,0.2c0.2,0,0.3-0.1,0.5-0.2C476.9,37.7,476.9,37.6,476.9,37.4z"/>
	<path class="st0" d="M489.1,32.9c0,0.3,0,0.5-0.1,0.7c-0.1,0.2-0.2,0.4-0.4,0.6c-0.2,0.2-0.3,0.3-0.6,0.4c-0.2,0.1-0.5,0.2-0.7,0.2
		c-0.2,0-0.5-0.1-0.7-0.2s-0.4-0.3-0.6-0.4c-0.2-0.2-0.3-0.4-0.4-0.7c-0.1-0.3-0.1-0.6,0-0.9c-0.2,0.1-0.5,0.2-0.7,0.4
		c-0.3,0.2-0.5,0.3-0.8,0.5s-0.5,0.4-0.7,0.6s-0.4,0.4-0.5,0.6h-1.2v-6.6c0-0.1,0-0.2,0.1-0.4l0.1-0.1c-0.1,0-0.1,0-0.2,0
		s-0.1,0-0.2,0c-0.3,0-0.5-0.1-0.7-0.2c-0.2-0.1-0.4-0.2-0.6-0.4c-0.2-0.2-0.3-0.4-0.4-0.6c-0.1-0.2-0.1-0.5-0.1-0.8
		c0-0.3,0-0.5,0.1-0.8c0.1-0.2,0.2-0.4,0.4-0.6c0.2-0.2,0.4-0.3,0.6-0.4c0.2-0.1,0.5-0.2,0.7-0.2s0.5,0.1,0.7,0.2
		c0.2,0.1,0.4,0.2,0.6,0.4c0.2,0.2,0.3,0.4,0.4,0.6c0.1,0.2,0.1,0.5,0.1,0.8c0,0.3,0,0.5-0.1,0.7s-0.1,0.4-0.2,0.5
		c-0.1,0.2-0.1,0.3-0.2,0.5c-0.1,0.2-0.1,0.4-0.1,0.7v5.3c0.4-0.4,0.8-0.6,1.2-0.9c0.4-0.2,0.8-0.4,1.1-0.6c0.4-0.2,0.7-0.3,1-0.5
		s0.6-0.3,0.8-0.5c0.2-0.2,0.4-0.3,0.5-0.6c0.1-0.2,0.2-0.5,0.2-0.8v-5.7h1.1v5.9c0,0.2,0,0.5-0.1,0.6c-0.1,0.2-0.1,0.3-0.2,0.4
		c-0.1,0.1-0.2,0.3-0.3,0.4c0.3,0.1,0.6,0.3,0.8,0.6C489,32.1,489.1,32.5,489.1,32.9z M482.3,25.7c0-0.3-0.1-0.5-0.3-0.7
		c-0.2-0.2-0.4-0.3-0.6-0.3s-0.5,0.1-0.6,0.3s-0.3,0.5-0.3,0.7s0.1,0.5,0.3,0.7c0.2,0.2,0.4,0.3,0.6,0.3s0.5-0.1,0.6-0.3
		C482.2,26.2,482.3,26,482.3,25.7z M488.1,32.9c0-0.2-0.1-0.5-0.2-0.6c-0.2-0.2-0.4-0.3-0.6-0.3s-0.4,0.1-0.6,0.3
		c-0.1,0.2-0.2,0.4-0.2,0.6c0,0.3,0.1,0.5,0.2,0.7c0.2,0.2,0.3,0.3,0.6,0.3s0.4-0.1,0.6-0.3S488.1,33.2,488.1,32.9z"/>
	<path class="st0" d="M502.8,32.9c0,0.3,0,0.5-0.1,0.8c-0.1,0.2-0.2,0.4-0.4,0.6c-0.2,0.2-0.4,0.3-0.6,0.4c-0.2,0.1-0.5,0.2-0.7,0.2
		s-0.5,0-0.7-0.1c-0.2-0.1-0.4-0.2-0.6-0.4c-0.2-0.2-0.3-0.4-0.4-0.6s-0.1-0.5-0.1-0.8v-9h1.1v7.3c0.1,0,0.1-0.1,0.3-0.1
		s0.3-0.1,0.5-0.1c0.3,0,0.5,0.1,0.7,0.2c0.2,0.1,0.4,0.2,0.6,0.4s0.3,0.4,0.4,0.6C502.7,32.4,502.8,32.6,502.8,32.9z M501.8,32.9
		c0-0.3-0.1-0.5-0.3-0.7c-0.2-0.2-0.4-0.3-0.6-0.3s-0.5,0.1-0.6,0.3c-0.2,0.2-0.3,0.5-0.3,0.7c0,0.3,0.1,0.5,0.3,0.7
		c0.2,0.2,0.4,0.3,0.6,0.3s0.5-0.1,0.6-0.3C501.7,33.4,501.8,33.2,501.8,32.9z M507.3,32.9c0,0.3,0,0.5-0.1,0.8
		c-0.1,0.2-0.2,0.4-0.4,0.6c-0.2,0.2-0.4,0.3-0.6,0.4c-0.2,0.1-0.5,0.2-0.7,0.2c-0.3,0-0.5,0-0.7-0.1c-0.2-0.1-0.4-0.2-0.6-0.4
		c-0.2-0.2-0.3-0.4-0.4-0.6c-0.1-0.2-0.1-0.5-0.1-0.8v-9h1.1v7.3c0.1,0,0.1-0.1,0.3-0.1s0.3-0.1,0.5-0.1c0.3,0,0.5,0.1,0.7,0.2
		c0.2,0.1,0.4,0.2,0.6,0.4s0.3,0.4,0.4,0.6S507.3,32.6,507.3,32.9z M506.4,32.9c0-0.3-0.1-0.5-0.3-0.7c-0.2-0.2-0.4-0.3-0.7-0.3
		c-0.3,0-0.5,0.1-0.6,0.3c-0.2,0.2-0.3,0.5-0.3,0.7c0,0.3,0.1,0.5,0.3,0.7c0.2,0.2,0.4,0.3,0.6,0.3c0.3,0,0.5-0.1,0.7-0.3
		C506.3,33.4,506.4,33.2,506.4,32.9z"/>
	<path class="st0" d="M515.5,34.7c-0.2-1-0.4-2-0.7-2.8c-0.3-0.8-0.6-1.5-0.9-2.1c-0.3-0.6-0.7-1-1.1-1.3c-0.4-0.3-0.8-0.4-1.1-0.4
		c-0.3,0-0.5,0.1-0.8,0.4c-0.2,0.2-0.4,0.5-0.5,0.8c-0.1,0.3-0.3,0.7-0.3,1s-0.1,0.7-0.1,1c0.1-0.1,0.3-0.3,0.5-0.4
		c0.2-0.1,0.4-0.2,0.7-0.2c0.3,0,0.5,0.1,0.8,0.2c0.2,0.1,0.4,0.3,0.6,0.4c0.2,0.2,0.3,0.4,0.4,0.6c0.1,0.2,0.1,0.5,0.1,0.8
		c0,0.3-0.1,0.5-0.2,0.8c-0.1,0.2-0.2,0.5-0.4,0.6c-0.2,0.2-0.4,0.3-0.6,0.4c-0.2,0.1-0.5,0.2-0.7,0.2c-0.2,0-0.4,0-0.7-0.1
		c-0.3-0.1-0.5-0.3-0.7-0.5c-0.2-0.2-0.4-0.6-0.6-1s-0.2-1-0.2-1.7c0-0.5,0.1-1.1,0.2-1.6s0.3-1,0.5-1.3s0.5-0.7,0.9-1
		c0.3-0.3,0.7-0.4,1.1-0.4c0.4,0,0.8,0,1.2,0.2c0.4,0.2,0.7,0.4,1,0.7s0.5,0.7,0.8,1.1c0.2,0.4,0.4,0.8,0.6,1.2l0.5,1.7h0.1l-0.1-1
		c0-0.3,0-0.5-0.1-0.8c0-0.3,0-0.4,0-0.6v-2.2c0-0.4-0.1-0.7-0.2-1.1c-0.1-0.3-0.3-0.7-0.5-0.9c-0.2-0.3-0.5-0.5-0.9-0.7
		c-0.4-0.2-0.8-0.3-1.3-0.3c-0.4,0-0.8,0.1-1.1,0.2c-0.3,0.1-0.6,0.3-0.8,0.5c-0.2,0.2-0.4,0.4-0.6,0.7c-0.2,0.3-0.3,0.5-0.4,0.7
		l-1-0.3c0.1-0.4,0.3-0.7,0.6-1c0.2-0.3,0.5-0.6,0.9-0.9s0.7-0.5,1.1-0.6c0.4-0.2,0.9-0.2,1.4-0.2c0.6,0,1.1,0.1,1.6,0.2
		c0.5,0.2,0.9,0.4,1.3,0.7s0.6,0.7,0.8,1.1c0.2,0.5,0.3,1,0.3,1.6v7.3H515.5z M512.1,32.8c0-0.2,0-0.3-0.1-0.4
		c-0.1-0.1-0.1-0.3-0.2-0.4c-0.1-0.1-0.2-0.2-0.3-0.2c-0.1-0.1-0.3-0.1-0.4-0.1c-0.3,0-0.5,0.1-0.7,0.3c-0.2,0.2-0.3,0.5-0.3,0.8
		c0,0.3,0.1,0.6,0.3,0.8c0.2,0.2,0.4,0.3,0.7,0.3c0.3,0,0.5-0.1,0.7-0.3C512,33.4,512.1,33.1,512.1,32.8z"/>
	<path class="st0" d="M527.9,32.9c0,0.3,0,0.5-0.1,0.7c-0.1,0.2-0.2,0.4-0.4,0.6c-0.2,0.2-0.3,0.3-0.6,0.4c-0.2,0.1-0.5,0.2-0.7,0.2
		c-0.2,0-0.5-0.1-0.7-0.2s-0.4-0.3-0.6-0.4c-0.2-0.2-0.3-0.4-0.4-0.7c-0.1-0.3-0.1-0.6,0-0.9c-0.2,0.1-0.5,0.2-0.7,0.4
		c-0.3,0.2-0.5,0.3-0.8,0.5s-0.5,0.4-0.7,0.6s-0.4,0.4-0.5,0.6h-1.2v-6.6c0-0.1,0-0.2,0.1-0.4l0.1-0.1c-0.1,0-0.1,0-0.2,0
		s-0.1,0-0.2,0c-0.3,0-0.5-0.1-0.7-0.2c-0.2-0.1-0.4-0.2-0.6-0.4c-0.2-0.2-0.3-0.4-0.4-0.6c-0.1-0.2-0.1-0.5-0.1-0.8
		c0-0.3,0-0.5,0.1-0.8c0.1-0.2,0.2-0.4,0.4-0.6c0.2-0.2,0.4-0.3,0.6-0.4c0.2-0.1,0.5-0.2,0.7-0.2s0.5,0.1,0.7,0.2
		c0.2,0.1,0.4,0.2,0.6,0.4c0.2,0.2,0.3,0.4,0.4,0.6c0.1,0.2,0.1,0.5,0.1,0.8c0,0.3,0,0.5-0.1,0.7s-0.1,0.4-0.2,0.5
		c-0.1,0.2-0.1,0.3-0.2,0.5c-0.1,0.2-0.1,0.4-0.1,0.7v5.3c0.4-0.4,0.8-0.6,1.2-0.9c0.4-0.2,0.8-0.4,1.1-0.6c0.4-0.2,0.7-0.3,1-0.5
		s0.6-0.3,0.8-0.5c0.2-0.2,0.4-0.3,0.5-0.6c0.1-0.2,0.2-0.5,0.2-0.8v-5.7h1.1v5.9c0,0.2,0,0.5-0.1,0.6c-0.1,0.2-0.1,0.3-0.2,0.4
		c-0.1,0.1-0.2,0.3-0.3,0.4c0.3,0.1,0.6,0.3,0.8,0.6C527.8,32.1,527.9,32.5,527.9,32.9z M521.1,25.7c0-0.3-0.1-0.5-0.3-0.7
		c-0.2-0.2-0.4-0.3-0.6-0.3s-0.5,0.1-0.6,0.3s-0.3,0.5-0.3,0.7s0.1,0.5,0.3,0.7c0.2,0.2,0.4,0.3,0.6,0.3s0.5-0.1,0.6-0.3
		C521,26.2,521.1,26,521.1,25.7z M527,32.9c0-0.2-0.1-0.5-0.2-0.6c-0.2-0.2-0.4-0.3-0.6-0.3s-0.4,0.1-0.6,0.3
		c-0.1,0.2-0.2,0.4-0.2,0.6c0,0.3,0.1,0.5,0.2,0.7c0.2,0.2,0.3,0.3,0.6,0.3s0.4-0.1,0.6-0.3S527,33.2,527,32.9z"/>
	<path class="st0" d="M537.2,27.6c0-0.4-0.1-0.7-0.2-1.1c-0.1-0.3-0.3-0.7-0.6-0.9s-0.6-0.5-1-0.7s-0.9-0.2-1.4-0.2
		c-0.4,0-0.8,0.1-1.2,0.2s-0.7,0.4-0.9,0.6c-0.3,0.3-0.5,0.5-0.6,0.9c-0.1,0.3-0.2,0.6-0.2,1c0,0.3,0,0.7,0.1,1
		c0.1,0.3,0.1,0.7,0.2,1.1c0.1,0.4,0.2,0.8,0.2,1.2c0.1,0.4,0.1,0.9,0.2,1.5c0,0.1,0,0.2,0,0.4s0,0.3,0,0.4c0,0.1,0,0.2,0,0.3
		c0,0.1,0,0.2,0,0.2c0-0.1,0.1-0.2,0.2-0.4c0.1-0.2,0.1-0.3,0.2-0.4c0.2-0.3,0.4-0.6,0.5-0.8s0.4-0.5,0.5-0.7l0.5-0.7
		c-0.5-0.1-0.8-0.3-1-0.6c-0.2-0.3-0.4-0.7-0.4-1.2c0-0.2,0-0.5,0.1-0.7s0.2-0.4,0.4-0.6c0.2-0.2,0.3-0.3,0.5-0.4
		c0.2-0.1,0.4-0.1,0.7-0.1c0.2,0,0.5,0,0.7,0.1c0.2,0.1,0.4,0.2,0.6,0.4s0.3,0.3,0.4,0.6s0.1,0.5,0.1,0.7c0,0.3-0.1,0.6-0.2,0.9
		c-0.2,0.3-0.3,0.5-0.5,0.7c-0.3,0.4-0.6,0.7-0.9,1.2c-0.3,0.4-0.6,0.8-0.9,1.2c-0.3,0.4-0.6,0.8-0.8,1.2s-0.4,0.7-0.6,0.9h-1.1
		c0-0.2,0-0.4,0-0.6c0-0.2,0-0.5,0-0.8s0-0.6,0-0.9c0-0.3,0-0.6-0.1-0.9c0-0.4-0.1-0.7-0.2-1s-0.2-0.7-0.3-1s-0.2-0.7-0.2-1.1
		c-0.1-0.4-0.1-0.8-0.1-1.3c0-0.5,0.1-0.9,0.3-1.3c0.2-0.4,0.5-0.8,0.9-1.1s0.8-0.5,1.3-0.7c0.5-0.2,1-0.3,1.5-0.3
		c0.6,0,1.1,0.1,1.6,0.2c0.5,0.2,1,0.4,1.3,0.7s0.7,0.7,0.9,1.2c0.2,0.5,0.3,1,0.3,1.6v7.3h-1.1V27.6z M535,28.7
		c0-0.3-0.1-0.5-0.2-0.7c-0.2-0.2-0.4-0.3-0.6-0.3c-0.2,0-0.4,0.1-0.6,0.3c-0.2,0.2-0.2,0.4-0.2,0.6c0,0.3,0.1,0.5,0.2,0.7
		c0.2,0.2,0.4,0.3,0.6,0.3s0.4-0.1,0.6-0.3C534.9,29.1,535,28.9,535,28.7z"/>
	<path class="st0" d="M539.4,18c-0.1,0.3-0.3,0.5-0.5,0.7s-0.5,0.3-0.7,0.4c-0.3,0.1-0.5,0.2-0.8,0.3c-0.3,0.1-0.4,0.1-0.6,0.2
		c0.2,0,0.4,0.1,0.5,0.2c0.1,0.1,0.3,0.2,0.4,0.3s0.2,0.3,0.2,0.4c0,0.1,0.1,0.3,0.1,0.4c0,0.2,0,0.3-0.1,0.5
		c-0.1,0.2-0.2,0.3-0.3,0.4s-0.3,0.2-0.4,0.3c-0.2,0.1-0.3,0.1-0.5,0.1c-0.2,0-0.4,0-0.5-0.1c-0.2-0.1-0.3-0.2-0.5-0.3
		c-0.1-0.1-0.2-0.3-0.3-0.5c-0.1-0.2-0.1-0.4-0.1-0.6c0-0.4,0.2-0.8,0.4-1.2c0.3-0.3,0.7-0.6,1.3-0.8c0.4-0.1,0.7-0.3,1-0.5
		c0.3-0.2,0.5-0.4,0.6-0.7L539.4,18z M537.3,20.9c0-0.2-0.1-0.3-0.2-0.5s-0.3-0.2-0.5-0.2c-0.2,0-0.3,0.1-0.4,0.2s-0.2,0.3-0.2,0.5
		s0.1,0.3,0.2,0.5c0.1,0.1,0.3,0.2,0.4,0.2c0.2,0,0.3-0.1,0.5-0.2C537.2,21.2,537.3,21.1,537.3,20.9z"/>
	<path class="st0" d="M552.3,32.9c0,0.3,0,0.5-0.1,0.8c-0.1,0.2-0.2,0.4-0.4,0.6c-0.2,0.2-0.4,0.3-0.6,0.4c-0.2,0.1-0.5,0.2-0.7,0.2
		s-0.5,0-0.7-0.1c-0.2-0.1-0.4-0.2-0.6-0.4c-0.2-0.2-0.3-0.4-0.4-0.6s-0.1-0.5-0.1-0.8v-9h1.1v7.3c0.1,0,0.1-0.1,0.3-0.1
		s0.3-0.1,0.5-0.1c0.3,0,0.5,0.1,0.7,0.2c0.2,0.1,0.4,0.2,0.6,0.4s0.3,0.4,0.4,0.6C552.3,32.4,552.3,32.6,552.3,32.9z M551.4,32.9
		c0-0.3-0.1-0.5-0.3-0.7c-0.2-0.2-0.4-0.3-0.6-0.3s-0.5,0.1-0.6,0.3c-0.2,0.2-0.3,0.5-0.3,0.7c0,0.3,0.1,0.5,0.3,0.7
		c0.2,0.2,0.4,0.3,0.6,0.3s0.5-0.1,0.6-0.3C551.3,33.4,551.4,33.2,551.4,32.9z M556.8,32.9c0,0.3,0,0.5-0.1,0.8
		c-0.1,0.2-0.2,0.4-0.4,0.6c-0.2,0.2-0.4,0.3-0.6,0.4c-0.2,0.1-0.5,0.2-0.7,0.2c-0.3,0-0.5,0-0.7-0.1c-0.2-0.1-0.4-0.2-0.6-0.4
		c-0.2-0.2-0.3-0.4-0.4-0.6c-0.1-0.2-0.1-0.5-0.1-0.8v-9h1.1v7.3c0.1,0,0.1-0.1,0.3-0.1s0.3-0.1,0.5-0.1c0.3,0,0.5,0.1,0.7,0.2
		c0.2,0.1,0.4,0.2,0.6,0.4s0.3,0.4,0.4,0.6S556.8,32.6,556.8,32.9z M555.9,32.9c0-0.3-0.1-0.5-0.3-0.7c-0.2-0.2-0.4-0.3-0.7-0.3
		c-0.3,0-0.5,0.1-0.6,0.3c-0.2,0.2-0.3,0.5-0.3,0.7c0,0.3,0.1,0.5,0.3,0.7c0.2,0.2,0.4,0.3,0.6,0.3c0.3,0,0.5-0.1,0.7-0.3
		C555.8,33.4,555.9,33.2,555.9,32.9z"/>
	<path class="st0" d="M566.1,32.3c0,0.8-0.2,1.4-0.5,1.8c-0.4,0.4-1,0.6-1.8,0.6h-5v-5.6c0-0.3,0-0.5,0.1-0.8
		c0.1-0.2,0.2-0.4,0.4-0.6c0.2-0.2,0.4-0.3,0.6-0.4s0.5-0.1,0.7-0.1s0.5,0.1,0.7,0.2c0.2,0.1,0.4,0.2,0.6,0.4s0.3,0.4,0.4,0.6
		c0.1,0.2,0.1,0.5,0.1,0.8c0,0.3,0,0.5-0.1,0.8c-0.1,0.2-0.2,0.4-0.4,0.6c-0.2,0.2-0.4,0.3-0.6,0.4c-0.2,0.1-0.5,0.1-0.7,0.1
		c-0.2,0-0.4,0-0.5-0.1c-0.1,0-0.2-0.1-0.3-0.1v2.9h3.5c0.4,0,0.7,0,0.9-0.1c0.2-0.1,0.4-0.2,0.5-0.3s0.2-0.3,0.2-0.5
		c0-0.2,0.1-0.5,0.1-0.8v-4.8c0-0.4-0.1-0.8-0.2-1.1s-0.4-0.6-0.6-0.8c-0.3-0.2-0.6-0.4-0.9-0.5c-0.4-0.1-0.8-0.2-1.2-0.2
		c-0.4,0-0.9,0.1-1.2,0.2s-0.7,0.3-1,0.5c-0.3,0.2-0.5,0.4-0.7,0.7c-0.2,0.3-0.4,0.5-0.5,0.8l-1-0.4c0.2-0.4,0.4-0.7,0.6-1
		s0.6-0.6,0.9-0.9c0.4-0.3,0.8-0.5,1.3-0.6c0.5-0.1,1-0.2,1.6-0.2c0.6,0,1.1,0.1,1.6,0.2c0.5,0.2,0.9,0.4,1.3,0.7s0.6,0.7,0.8,1.1
		c0.2,0.4,0.3,0.9,0.3,1.5V32.3z M561.5,29c0-0.3-0.1-0.5-0.3-0.7c-0.2-0.2-0.4-0.3-0.7-0.3s-0.5,0.1-0.6,0.3
		c-0.2,0.2-0.3,0.5-0.3,0.7c0,0.3,0.1,0.5,0.3,0.7c0.2,0.2,0.4,0.3,0.6,0.3s0.5-0.1,0.7-0.3C561.4,29.6,561.5,29.3,561.5,29z"/>
	<path class="st0" d="M577.4,32.9c0,0.3,0,0.5-0.1,0.7c-0.1,0.2-0.2,0.4-0.4,0.6c-0.2,0.2-0.3,0.3-0.6,0.4c-0.2,0.1-0.5,0.2-0.7,0.2
		c-0.2,0-0.5-0.1-0.7-0.2s-0.4-0.3-0.6-0.4c-0.2-0.2-0.3-0.4-0.4-0.7c-0.1-0.3-0.1-0.6,0-0.9c-0.2,0.1-0.5,0.2-0.7,0.4
		c-0.3,0.2-0.5,0.3-0.8,0.5s-0.5,0.4-0.7,0.6s-0.4,0.4-0.5,0.6H570v-6.6c0-0.1,0-0.2,0.1-0.4l0.1-0.1c-0.1,0-0.1,0-0.2,0
		s-0.1,0-0.2,0c-0.3,0-0.5-0.1-0.7-0.2c-0.2-0.1-0.4-0.2-0.6-0.4c-0.2-0.2-0.3-0.4-0.4-0.6c-0.1-0.2-0.1-0.5-0.1-0.8
		c0-0.3,0-0.5,0.1-0.8c0.1-0.2,0.2-0.4,0.4-0.6c0.2-0.2,0.4-0.3,0.6-0.4c0.2-0.1,0.5-0.2,0.7-0.2s0.5,0.1,0.7,0.2
		c0.2,0.1,0.4,0.2,0.6,0.4c0.2,0.2,0.3,0.4,0.4,0.6c0.1,0.2,0.1,0.5,0.1,0.8c0,0.3,0,0.5-0.1,0.7s-0.1,0.4-0.2,0.5
		c-0.1,0.2-0.1,0.3-0.2,0.5c-0.1,0.2-0.1,0.4-0.1,0.7v5.3c0.4-0.4,0.8-0.6,1.2-0.9c0.4-0.2,0.8-0.4,1.1-0.6c0.4-0.2,0.7-0.3,1-0.5
		s0.6-0.3,0.8-0.5c0.2-0.2,0.4-0.3,0.5-0.6c0.1-0.2,0.2-0.5,0.2-0.8v-5.7h1.1v5.9c0,0.2,0,0.5-0.1,0.6c-0.1,0.2-0.1,0.3-0.2,0.4
		c-0.1,0.1-0.2,0.3-0.3,0.4c0.3,0.1,0.6,0.3,0.8,0.6C577.3,32.1,577.4,32.5,577.4,32.9z M570.6,25.7c0-0.3-0.1-0.5-0.3-0.7
		c-0.2-0.2-0.4-0.3-0.6-0.3s-0.5,0.1-0.6,0.3s-0.3,0.5-0.3,0.7s0.1,0.5,0.3,0.7c0.2,0.2,0.4,0.3,0.6,0.3s0.5-0.1,0.6-0.3
		C570.5,26.2,570.6,26,570.6,25.7z M576.4,32.9c0-0.2-0.1-0.5-0.2-0.6c-0.2-0.2-0.4-0.3-0.6-0.3s-0.4,0.1-0.6,0.3
		c-0.1,0.2-0.2,0.4-0.2,0.6c0,0.3,0.1,0.5,0.2,0.7c0.2,0.2,0.3,0.3,0.6,0.3s0.4-0.1,0.6-0.3S576.4,33.2,576.4,32.9z"/>
	<path class="st0" d="M586.7,27.6c0-0.4-0.1-0.7-0.2-1.1c-0.1-0.3-0.3-0.7-0.6-0.9s-0.6-0.5-1-0.7s-0.9-0.2-1.4-0.2
		c-0.4,0-0.8,0.1-1.2,0.2s-0.7,0.4-0.9,0.6c-0.3,0.3-0.5,0.5-0.6,0.9c-0.1,0.3-0.2,0.6-0.2,1c0,0.3,0,0.7,0.1,1
		c0.1,0.3,0.1,0.7,0.2,1.1c0.1,0.4,0.2,0.8,0.2,1.2c0.1,0.4,0.1,0.9,0.2,1.5c0,0.1,0,0.2,0,0.4s0,0.3,0,0.4c0,0.1,0,0.2,0,0.3
		c0,0.1,0,0.2,0,0.2c0-0.1,0.1-0.2,0.2-0.4c0.1-0.2,0.1-0.3,0.2-0.4c0.2-0.3,0.4-0.6,0.5-0.8s0.4-0.5,0.5-0.7l0.5-0.7
		c-0.5-0.1-0.8-0.3-1-0.6c-0.2-0.3-0.4-0.7-0.4-1.2c0-0.2,0-0.5,0.1-0.7s0.2-0.4,0.4-0.6c0.2-0.2,0.3-0.3,0.5-0.4
		c0.2-0.1,0.4-0.1,0.7-0.1c0.2,0,0.5,0,0.7,0.1c0.2,0.1,0.4,0.2,0.6,0.4s0.3,0.3,0.4,0.6s0.1,0.5,0.1,0.7c0,0.3-0.1,0.6-0.2,0.9
		c-0.2,0.3-0.3,0.5-0.5,0.7c-0.3,0.4-0.6,0.7-0.9,1.2c-0.3,0.4-0.6,0.8-0.9,1.2c-0.3,0.4-0.6,0.8-0.8,1.2s-0.4,0.7-0.6,0.9h-1.1
		c0-0.2,0-0.4,0-0.6c0-0.2,0-0.5,0-0.8s0-0.6,0-0.9c0-0.3,0-0.6-0.1-0.9c0-0.4-0.1-0.7-0.2-1s-0.2-0.7-0.3-1s-0.2-0.7-0.2-1.1
		c-0.1-0.4-0.1-0.8-0.1-1.3c0-0.5,0.1-0.9,0.3-1.3c0.2-0.4,0.5-0.8,0.9-1.1s0.8-0.5,1.3-0.7c0.5-0.2,1-0.3,1.5-0.3
		c0.6,0,1.1,0.1,1.6,0.2c0.5,0.2,1,0.4,1.3,0.7s0.7,0.7,0.9,1.2c0.2,0.5,0.3,1,0.3,1.6v7.3h-1.1V27.6z M584.5,28.7
		c0-0.3-0.1-0.5-0.2-0.7c-0.2-0.2-0.4-0.3-0.6-0.3c-0.2,0-0.4,0.1-0.6,0.3c-0.2,0.2-0.2,0.4-0.2,0.6c0,0.3,0.1,0.5,0.2,0.7
		c0.2,0.2,0.4,0.3,0.6,0.3s0.4-0.1,0.6-0.3C584.4,29.1,584.5,28.9,584.5,28.7z"/>
	<path class="st0" d="M588.9,18c-0.1,0.3-0.3,0.5-0.5,0.7s-0.5,0.3-0.7,0.4c-0.3,0.1-0.5,0.2-0.8,0.3c-0.3,0.1-0.4,0.1-0.6,0.2
		c0.2,0,0.4,0.1,0.5,0.2c0.1,0.1,0.3,0.2,0.4,0.3s0.2,0.3,0.2,0.4c0,0.1,0.1,0.3,0.1,0.4c0,0.2,0,0.3-0.1,0.5
		c-0.1,0.2-0.2,0.3-0.3,0.4s-0.3,0.2-0.4,0.3c-0.2,0.1-0.3,0.1-0.5,0.1c-0.2,0-0.4,0-0.5-0.1c-0.2-0.1-0.3-0.2-0.5-0.3
		c-0.1-0.1-0.2-0.3-0.3-0.5c-0.1-0.2-0.1-0.4-0.1-0.6c0-0.4,0.2-0.8,0.4-1.2c0.3-0.3,0.7-0.6,1.3-0.8c0.4-0.1,0.7-0.3,1-0.5
		c0.3-0.2,0.5-0.4,0.6-0.7L588.9,18z M586.8,20.9c0-0.2-0.1-0.3-0.2-0.5s-0.3-0.2-0.5-0.2c-0.2,0-0.3,0.1-0.4,0.2s-0.2,0.3-0.2,0.5
		s0.1,0.3,0.2,0.5c0.1,0.1,0.3,0.2,0.4,0.2c0.2,0,0.3-0.1,0.5-0.2C586.7,21.2,586.8,21.1,586.8,20.9z"/>
	<path class="st0" d="M601.8,32.9c0,0.3,0,0.5-0.1,0.8c-0.1,0.2-0.2,0.4-0.4,0.6c-0.2,0.2-0.4,0.3-0.6,0.4c-0.2,0.1-0.5,0.2-0.7,0.2
		s-0.5,0-0.7-0.1c-0.2-0.1-0.4-0.2-0.6-0.4c-0.2-0.2-0.3-0.4-0.4-0.6s-0.1-0.5-0.1-0.8v-9h1.1v7.3c0.1,0,0.1-0.1,0.3-0.1
		s0.3-0.1,0.5-0.1c0.3,0,0.5,0.1,0.7,0.2c0.2,0.1,0.4,0.2,0.6,0.4s0.3,0.4,0.4,0.6C601.7,32.4,601.8,32.6,601.8,32.9z M600.9,32.9
		c0-0.3-0.1-0.5-0.3-0.7c-0.2-0.2-0.4-0.3-0.6-0.3s-0.5,0.1-0.6,0.3c-0.2,0.2-0.3,0.5-0.3,0.7c0,0.3,0.1,0.5,0.3,0.7
		c0.2,0.2,0.4,0.3,0.6,0.3s0.5-0.1,0.6-0.3C600.8,33.4,600.9,33.2,600.9,32.9z"/>
	<path class="st0" d="M610.4,25.2c0.4,0.5,0.6,1.2,0.6,2v5c0,0.8-0.2,1.4-0.5,1.8c-0.4,0.4-1,0.6-1.8,0.6h-5v-5.4
		c0-0.3,0-0.5,0.1-0.8c0.1-0.2,0.2-0.4,0.4-0.6c0.2-0.2,0.4-0.3,0.6-0.4c0.2-0.1,0.5-0.2,0.7-0.2s0.5,0.1,0.7,0.2
		c0.2,0.1,0.4,0.2,0.6,0.4c0.2,0.2,0.3,0.4,0.4,0.6c0.1,0.2,0.1,0.5,0.1,0.8c0,0.3,0,0.5-0.1,0.8c-0.1,0.2-0.2,0.4-0.4,0.6
		s-0.4,0.3-0.6,0.4c-0.2,0.1-0.5,0.2-0.7,0.2c-0.2,0-0.4,0-0.5-0.1s-0.2-0.1-0.3-0.1v2.7h3.5c0.4,0,0.7,0,0.9-0.1
		c0.2-0.1,0.4-0.2,0.5-0.3s0.2-0.3,0.2-0.5c0-0.2,0.1-0.5,0.1-0.8v-4.8c0-0.4-0.1-0.9-0.3-1.2c-0.3,0.3-0.6,0.5-0.9,0.6
		c-0.3,0.1-0.7,0.2-1.1,0.2h-4.5v-0.9c0.2-0.3,0.4-0.6,0.7-0.9c0.3-0.3,0.6-0.5,0.9-0.7c0.3-0.2,0.7-0.3,1.1-0.5
		c0.4-0.1,0.8-0.2,1.3-0.2c0.5,0,1,0.1,1.4,0.2s0.8,0.3,1.2,0.6l0.8-0.9l0.8,0.6L610.4,25.2z M609,25.3c-0.2-0.2-0.5-0.3-0.8-0.5
		c-0.3-0.1-0.7-0.2-1.1-0.2c-0.6,0-1.1,0.1-1.6,0.4c-0.4,0.2-0.8,0.5-1.1,0.9h2.9c0.4,0,0.7-0.1,0.9-0.2S608.8,25.5,609,25.3z
		 M606.5,29.3c0-0.3-0.1-0.5-0.3-0.7c-0.2-0.2-0.4-0.3-0.7-0.3s-0.5,0.1-0.6,0.3c-0.2,0.2-0.3,0.5-0.3,0.7s0.1,0.5,0.3,0.7
		c0.2,0.2,0.4,0.3,0.6,0.3s0.5-0.1,0.7-0.3C606.4,29.8,606.5,29.6,606.5,29.3z"/>
	<path class="st0" d="M613.1,18.5c-0.1,0.5-0.2,1-0.5,1.5c-0.3,0.5-0.7,0.8-1.2,1.2c-0.5,0.3-1.1,0.6-1.8,0.8s-1.5,0.3-2.4,0.3h-0.5
		v-0.6c0.2-0.1,0.4-0.2,0.7-0.4s0.5-0.4,0.7-0.6c-0.2,0-0.4-0.1-0.6-0.1c-0.2-0.1-0.3-0.2-0.5-0.3c-0.1-0.1-0.2-0.3-0.3-0.5
		c-0.1-0.2-0.1-0.4-0.1-0.6c0-0.2,0-0.4,0.1-0.6c0.1-0.2,0.2-0.4,0.3-0.5c0.1-0.1,0.3-0.3,0.5-0.4c0.2-0.1,0.4-0.1,0.6-0.1
		c0.2,0,0.5,0,0.7,0.1c0.2,0.1,0.4,0.2,0.5,0.4s0.2,0.3,0.3,0.5c0.1,0.2,0.1,0.4,0.1,0.6c0,0.4-0.1,0.8-0.4,1.2
		c-0.2,0.4-0.6,0.7-0.9,1c0.4-0.1,0.8-0.2,1.3-0.3s0.8-0.3,1.1-0.6c0.3-0.2,0.6-0.5,0.8-0.8c0.2-0.3,0.3-0.7,0.3-1.1H613.1z
		 M608.8,19.1c0-0.2-0.1-0.4-0.2-0.5c-0.1-0.1-0.3-0.2-0.5-0.2c-0.2,0-0.4,0.1-0.5,0.2c-0.1,0.1-0.2,0.3-0.2,0.5
		c0,0.2,0.1,0.4,0.2,0.5c0.1,0.2,0.3,0.2,0.5,0.2c0.2,0,0.4-0.1,0.5-0.2C608.8,19.5,608.8,19.3,608.8,19.1z"/>
	<path class="st0" d="M618.1,25.4c-0.4-0.5-1.1-0.7-1.9-0.7c-0.3,0-0.6,0.1-0.9,0.2c-0.3,0.1-0.5,0.2-0.8,0.4
		c-0.2,0.2-0.4,0.4-0.6,0.7c-0.2,0.3-0.3,0.6-0.4,0.9l-1-0.4c0.1-0.4,0.3-0.7,0.5-1c0.2-0.3,0.5-0.6,0.8-0.9
		c0.3-0.2,0.7-0.4,1.1-0.6c0.4-0.1,0.8-0.2,1.2-0.2c0.6,0,1.1,0.1,1.5,0.2s0.8,0.4,1.2,0.7c0.3,0.3,0.6,0.6,0.7,1.1
		c0.2,0.4,0.3,0.9,0.3,1.5v7.6h-1.1v-7.4C618.8,26.5,618.6,25.8,618.1,25.4z"/>
	<path class="st0" d="M630.6,22.8c0,0.4-0.2,0.8-0.5,1.1c-0.3,0.3-0.6,0.5-1.1,0.7c0.4,0.3,0.8,0.7,1,1.2c0.2,0.5,0.4,1.1,0.4,1.7
		v7.3h-1.1c-0.2-1-0.4-2-0.7-2.8c-0.3-0.8-0.6-1.5-0.9-2.1c-0.3-0.6-0.7-1-1.1-1.3c-0.4-0.3-0.8-0.4-1.1-0.4c-0.3,0-0.5,0.1-0.8,0.4
		c-0.2,0.2-0.4,0.5-0.5,0.8c-0.1,0.3-0.3,0.7-0.3,1s-0.1,0.7-0.1,1c0.1-0.1,0.3-0.3,0.5-0.4c0.2-0.1,0.4-0.2,0.7-0.2
		c0.3,0,0.5,0.1,0.8,0.2c0.2,0.1,0.4,0.3,0.6,0.4c0.2,0.2,0.3,0.4,0.4,0.6c0.1,0.2,0.1,0.5,0.1,0.8c0,0.3-0.1,0.5-0.2,0.8
		c-0.1,0.2-0.2,0.5-0.4,0.6c-0.2,0.2-0.4,0.3-0.6,0.4c-0.2,0.1-0.5,0.2-0.7,0.2c-0.2,0-0.4,0-0.7-0.1c-0.3-0.1-0.5-0.3-0.7-0.5
		c-0.2-0.2-0.4-0.6-0.6-1s-0.2-1-0.2-1.7c0-0.5,0.1-1.1,0.2-1.6s0.3-1,0.5-1.3s0.5-0.7,0.9-1c0.3-0.3,0.7-0.4,1.1-0.4
		c0.4,0,0.8,0,1.2,0.2c0.4,0.2,0.7,0.4,1,0.7s0.5,0.7,0.8,1.1c0.2,0.4,0.4,0.8,0.6,1.2l0.5,1.7h0.1l-0.1-1c0-0.3,0-0.5-0.1-0.8
		c0-0.3,0-0.4,0-0.6v-2.2c0-0.4-0.1-0.7-0.2-1.1c-0.1-0.3-0.3-0.7-0.5-0.9c-0.2-0.3-0.5-0.5-0.9-0.7c-0.4-0.2-0.8-0.3-1.3-0.3
		c-0.4,0-0.8,0.1-1.1,0.2c-0.3,0.1-0.6,0.3-0.8,0.5c-0.2,0.2-0.4,0.4-0.6,0.7c-0.2,0.3-0.3,0.5-0.4,0.7l-1-0.3
		c0.1-0.4,0.3-0.7,0.6-1c0.2-0.3,0.5-0.6,0.9-0.9s0.7-0.5,1.1-0.6c0.4-0.2,0.9-0.2,1.4-0.2c0.7,0,1.3,0.1,1.9,0.3
		c0.2-0.1,0.4-0.2,0.6-0.5s0.3-0.5,0.3-0.8H630.6z M625.9,32.8c0-0.2,0-0.3-0.1-0.4c-0.1-0.1-0.1-0.3-0.2-0.4
		c-0.1-0.1-0.2-0.2-0.3-0.2c-0.1-0.1-0.3-0.1-0.4-0.1c-0.3,0-0.5,0.1-0.7,0.3c-0.2,0.2-0.3,0.5-0.3,0.8c0,0.3,0.1,0.6,0.3,0.8
		c0.2,0.2,0.4,0.3,0.7,0.3c0.3,0,0.5-0.1,0.7-0.3C625.8,33.4,625.9,33.1,625.9,32.8z"/>
	<path class="st0" d="M631.5,18c-0.1,0.3-0.3,0.5-0.5,0.7s-0.5,0.3-0.7,0.4c-0.3,0.1-0.5,0.2-0.8,0.3c-0.3,0.1-0.4,0.1-0.6,0.2
		c0.2,0,0.4,0.1,0.5,0.2c0.1,0.1,0.3,0.2,0.4,0.3s0.2,0.3,0.2,0.4c0,0.1,0.1,0.3,0.1,0.4c0,0.2,0,0.3-0.1,0.5
		c-0.1,0.2-0.2,0.3-0.3,0.4s-0.3,0.2-0.4,0.3c-0.2,0.1-0.3,0.1-0.5,0.1c-0.2,0-0.4,0-0.5-0.1c-0.2-0.1-0.3-0.2-0.5-0.3
		c-0.1-0.1-0.2-0.3-0.3-0.5c-0.1-0.2-0.1-0.4-0.1-0.6c0-0.4,0.2-0.8,0.4-1.2c0.3-0.3,0.7-0.6,1.3-0.8c0.4-0.1,0.7-0.3,1-0.5
		c0.3-0.2,0.5-0.4,0.6-0.7L631.5,18z M629.4,20.9c0-0.2-0.1-0.3-0.2-0.5s-0.3-0.2-0.5-0.2c-0.2,0-0.3,0.1-0.4,0.2s-0.2,0.3-0.2,0.5
		s0.1,0.3,0.2,0.5c0.1,0.1,0.3,0.2,0.4,0.2c0.2,0,0.3-0.1,0.5-0.2C629.3,21.2,629.4,21.1,629.4,20.9z"/>
	<path class="st0" d="M645.8,34.7c-0.2-0.7-0.6-1.5-1-2.3c-0.4-0.8-0.8-1.5-1.2-2.1c-0.1,0.1-0.1,0.3-0.2,0.4
		c-0.1,0.1-0.2,0.3-0.4,0.4c-0.1,0.1-0.3,0.2-0.5,0.3c-0.2,0.1-0.3,0.1-0.5,0.1c-0.2,0-0.5,0-0.7-0.1c-0.2-0.1-0.4-0.2-0.6-0.4
		c-0.2-0.2-0.3-0.4-0.4-0.6c-0.1-0.2-0.2-0.5-0.2-0.8c0-0.2,0-0.5,0.1-0.7c0.1-0.2,0.2-0.4,0.4-0.6s0.4-0.3,0.6-0.4
		c0.2-0.1,0.4-0.1,0.7-0.1c0.4,0,0.8,0.1,1.1,0.3s0.6,0.5,0.9,0.9c0.1,0.1,0.2,0.3,0.4,0.6s0.3,0.5,0.4,0.7c0.2,0.3,0.3,0.5,0.4,0.8
		c0.1,0.3,0.3,0.5,0.4,0.8l0.4,1.1l-0.1-1.4v-4c0-0.4-0.1-0.8-0.2-1.2c-0.1-0.4-0.4-0.7-0.6-0.9c-0.3-0.3-0.6-0.5-0.9-0.6
		c-0.3-0.1-0.7-0.2-1.1-0.2c-0.4,0-0.8,0.1-1.1,0.2c-0.3,0.1-0.6,0.3-0.9,0.5c-0.3,0.2-0.5,0.5-0.7,0.8s-0.4,0.6-0.5,1l-1-0.3
		c0.1-0.4,0.4-0.8,0.6-1.2c0.3-0.4,0.6-0.7,1-1c0.4-0.3,0.8-0.5,1.2-0.7s0.9-0.3,1.5-0.3s1,0.1,1.5,0.2s0.9,0.4,1.3,0.7
		c0.4,0.3,0.6,0.7,0.9,1.2s0.3,1,0.3,1.6v7.2H645.8z M642.8,29.7c0-0.3-0.1-0.5-0.2-0.7c-0.2-0.2-0.4-0.3-0.6-0.3
		c-0.2,0-0.4,0.1-0.6,0.3c-0.2,0.2-0.2,0.4-0.2,0.7c0,0.2,0.1,0.5,0.2,0.6c0.2,0.2,0.4,0.3,0.6,0.3c0.1,0,0.2,0,0.3-0.1
		c0.1-0.1,0.2-0.1,0.3-0.2c0.1-0.1,0.1-0.2,0.2-0.3C642.8,29.9,642.8,29.8,642.8,29.7z"/>
	<path class="st0" d="M648.2,20.7c0,0.3,0,0.5-0.1,0.7c-0.1,0.2-0.2,0.4-0.4,0.6c-0.2,0.2-0.4,0.3-0.6,0.4c-0.2,0.1-0.5,0.1-0.7,0.1
		c-0.2,0-0.5,0-0.7-0.1c-0.2-0.1-0.4-0.2-0.6-0.4c-0.2-0.2-0.3-0.4-0.4-0.6c-0.1-0.2-0.1-0.5-0.1-0.7c0-0.2,0-0.5,0.1-0.7
		c0.1-0.2,0.2-0.4,0.4-0.6s0.4-0.3,0.6-0.4c0.2-0.1,0.5-0.1,0.7-0.1c0.2,0,0.5,0,0.7,0.1c0.2,0.1,0.4,0.2,0.6,0.4s0.3,0.4,0.4,0.6
		C648.1,20.2,648.2,20.4,648.2,20.7z M647.4,20.7c0-0.3-0.1-0.5-0.3-0.7s-0.4-0.3-0.7-0.3c-0.3,0-0.5,0.1-0.7,0.3
		c-0.2,0.2-0.3,0.4-0.3,0.7c0,0.3,0.1,0.5,0.3,0.7c0.2,0.2,0.4,0.3,0.7,0.3c0.3,0,0.5-0.1,0.7-0.3C647.3,21.2,647.4,21,647.4,20.7z
		 M654.7,27.3c0-0.8-0.2-1.5-0.7-2c-0.4-0.5-1.1-0.7-1.9-0.7c-0.3,0-0.6,0.1-0.9,0.2c-0.3,0.1-0.5,0.2-0.8,0.4
		c-0.2,0.2-0.4,0.4-0.6,0.7c-0.2,0.3-0.3,0.6-0.4,0.9l-1-0.4c0.1-0.4,0.3-0.7,0.5-1c0.2-0.3,0.5-0.6,0.8-0.9
		c0.3-0.2,0.7-0.4,1.1-0.6c0.4-0.1,0.8-0.2,1.2-0.2c0.6,0,1.1,0.1,1.5,0.2s0.8,0.4,1.2,0.7c0.3,0.3,0.6,0.6,0.7,1.1
		c0.2,0.4,0.3,0.9,0.3,1.5v7.6h-1.1V27.3z"/>
	<path class="st0" d="M664.8,26.2c-0.1-0.3-0.3-0.6-0.6-0.9c-0.3-0.2-0.6-0.4-0.9-0.5c-0.4-0.1-0.8-0.2-1.2-0.2
		c-0.3,0-0.6,0-0.9,0.1s-0.5,0.1-0.7,0.2c-0.2,0.1-0.5,0.2-0.7,0.3s-0.5,0.3-0.7,0.4c0.7,0.1,1.2,0.2,1.7,0.3
		c0.5,0.1,0.9,0.3,1.2,0.4v0.8c-0.3,0-0.6,0.1-0.9,0.3c-0.3,0.1-0.5,0.3-0.7,0.5c-0.2,0.2-0.3,0.5-0.4,0.7c-0.1,0.3-0.2,0.6-0.2,0.9
		v5.1h-1.1v-5c0-0.3,0-0.6,0.1-0.9c0.1-0.3,0.2-0.6,0.4-0.8s0.4-0.5,0.6-0.7c0.3-0.2,0.6-0.4,0.9-0.5c-0.6-0.2-1.1-0.3-1.6-0.4
		c-0.5-0.1-0.9-0.1-1.3-0.1v-0.8c0.3-0.2,0.6-0.3,0.8-0.5c0.3-0.2,0.6-0.4,0.9-0.6c0.3-0.2,0.7-0.3,1.1-0.5c0.4-0.1,0.9-0.2,1.4-0.2
		c0.5,0,1,0.1,1.5,0.2c0.5,0.2,0.9,0.4,1.2,0.7s0.6,0.6,0.8,1.1c0.2,0.4,0.3,0.9,0.3,1.4v7.6H665v-7.3
		C665,26.9,664.9,26.5,664.8,26.2z"/>
	<path class="st0" d="M669.3,18.9c-0.1,0.5-0.2,1-0.4,1.4s-0.5,0.8-0.9,1.2s-0.8,0.6-1.4,0.8c-0.5,0.2-1.1,0.3-1.8,0.3
		c-0.5,0-0.9-0.1-1.3-0.2c-0.4-0.1-0.8-0.2-1.1-0.4s-0.6-0.4-0.7-0.7c-0.2-0.3-0.3-0.6-0.3-0.9c0-0.2,0-0.4,0.1-0.6
		c0.1-0.2,0.2-0.4,0.3-0.5s0.3-0.3,0.5-0.3c0.2-0.1,0.4-0.1,0.6-0.1c0.2,0,0.4,0,0.6,0.1c0.2,0.1,0.4,0.2,0.5,0.3
		c0.1,0.1,0.3,0.3,0.3,0.5c0.1,0.2,0.1,0.4,0.1,0.6c0,0.3-0.1,0.5-0.2,0.7c-0.1,0.2-0.3,0.4-0.4,0.5c0.6,0.1,1.1,0,1.6-0.1
		s0.9-0.3,1.3-0.5c0.4-0.2,0.7-0.5,0.9-0.9c0.2-0.4,0.4-0.8,0.4-1.3H669.3z M663.7,20.3c0-0.2-0.1-0.4-0.2-0.5
		c-0.1-0.2-0.3-0.2-0.5-0.2c-0.2,0-0.4,0.1-0.5,0.2c-0.1,0.2-0.2,0.3-0.2,0.5c0,0.2,0.1,0.4,0.2,0.5c0.1,0.1,0.3,0.2,0.5,0.2
		c0.2,0,0.4-0.1,0.5-0.2C663.6,20.7,663.7,20.5,663.7,20.3z"/>
	<path class="st0" d="M675.7,27.6c0-0.4-0.1-0.7-0.2-1.1c-0.1-0.3-0.3-0.7-0.6-0.9s-0.6-0.5-1-0.7s-0.9-0.2-1.4-0.2
		c-0.4,0-0.8,0.1-1.2,0.2s-0.7,0.4-0.9,0.6c-0.3,0.3-0.5,0.5-0.6,0.9c-0.1,0.3-0.2,0.6-0.2,1c0,0.3,0,0.7,0.1,1
		c0.1,0.3,0.1,0.7,0.2,1.1c0.1,0.4,0.2,0.8,0.2,1.2c0.1,0.4,0.1,0.9,0.2,1.5c0,0.1,0,0.2,0,0.4s0,0.3,0,0.4c0,0.1,0,0.2,0,0.3
		c0,0.1,0,0.2,0,0.2c0-0.1,0.1-0.2,0.2-0.4c0.1-0.2,0.1-0.3,0.2-0.4c0.2-0.3,0.4-0.6,0.5-0.8s0.4-0.5,0.5-0.7l0.5-0.7
		c-0.5-0.1-0.8-0.3-1-0.6c-0.2-0.3-0.4-0.7-0.4-1.2c0-0.2,0-0.5,0.1-0.7s0.2-0.4,0.4-0.6c0.2-0.2,0.3-0.3,0.5-0.4
		c0.2-0.1,0.4-0.1,0.7-0.1c0.2,0,0.5,0,0.7,0.1c0.2,0.1,0.4,0.2,0.6,0.4s0.3,0.3,0.4,0.6s0.1,0.5,0.1,0.7c0,0.3-0.1,0.6-0.2,0.9
		c-0.2,0.3-0.3,0.5-0.5,0.7c-0.3,0.4-0.6,0.7-0.9,1.2c-0.3,0.4-0.6,0.8-0.9,1.2c-0.3,0.4-0.6,0.8-0.8,1.2s-0.4,0.7-0.6,0.9h-1.1
		c0-0.2,0-0.4,0-0.6c0-0.2,0-0.5,0-0.8s0-0.6,0-0.9c0-0.3,0-0.6-0.1-0.9c0-0.4-0.1-0.7-0.2-1s-0.2-0.7-0.3-1s-0.2-0.7-0.2-1.1
		c-0.1-0.4-0.1-0.8-0.1-1.3c0-0.5,0.1-0.9,0.3-1.3c0.2-0.4,0.5-0.8,0.9-1.1s0.8-0.5,1.3-0.7c0.5-0.2,1-0.3,1.5-0.3
		c0.6,0,1.1,0.1,1.6,0.2c0.5,0.2,1,0.4,1.3,0.7s0.7,0.7,0.9,1.2c0.2,0.5,0.3,1,0.3,1.6v7.3h-1.1V27.6z M673.4,28.7
		c0-0.3-0.1-0.5-0.2-0.7c-0.2-0.2-0.4-0.3-0.6-0.3c-0.2,0-0.4,0.1-0.6,0.3c-0.2,0.2-0.2,0.4-0.2,0.6c0,0.3,0.1,0.5,0.2,0.7
		c0.2,0.2,0.4,0.3,0.6,0.3s0.4-0.1,0.6-0.3C673.4,29.1,673.4,28.9,673.4,28.7z"/>
	<path class="st0" d="M274.1,48.6h1v9.2h6.3v0.8H275c-0.2,0-0.4-0.1-0.6-0.3s-0.3-0.4-0.3-0.6V48.6z"/>
	<path class="st0" d="M287.9,48.6c0.3,0,0.6,0.1,0.8,0.2c0.3,0.1,0.4,0.3,0.6,0.6l4.2,9.3h-1.1l-1.3-2.8h-5.4l-1.2,2.8h-1.1
		L287.9,48.6z M286.1,55h4.7l-2.3-5.3L286.1,55z"/>
	<path class="st0" d="M303.4,57.1v-8.5h1v10.1h-1l-6.6-8.5v8.5h-1V48.6h1L303.4,57.1z"/>
	<path class="st0" d="M308.3,58.7c-0.2,0-0.4-0.1-0.6-0.3s-0.3-0.4-0.3-0.6v-9.1h5.2c0.5,0,0.9,0.1,1.3,0.3c0.4,0.2,0.8,0.4,1,0.7
		c0.3,0.3,0.5,0.6,0.7,1c0.2,0.4,0.3,0.8,0.3,1.3v2.7c0,0.6-0.1,1.1-0.3,1.6c-0.2,0.5-0.5,0.9-0.9,1.3c-0.4,0.4-0.8,0.6-1.3,0.8
		c-0.5,0.2-1,0.3-1.5,0.3H308.3z M308.3,57.8h3.5c0.4,0,0.8-0.1,1.2-0.3s0.7-0.4,1-0.7c0.3-0.3,0.5-0.6,0.7-1
		c0.2-0.4,0.2-0.8,0.2-1.2v-2.7c0-0.3-0.1-0.6-0.2-0.9c-0.1-0.3-0.3-0.6-0.5-0.8s-0.5-0.4-0.8-0.5c-0.3-0.1-0.6-0.2-0.9-0.2h-4.2
		V57.8z"/>
	<path class="st0" d="M330.3,48.6c0.3,0,0.6,0.1,0.8,0.2c0.3,0.1,0.4,0.3,0.6,0.6l4.2,9.3h-1.1l-1.3-2.8h-5.4l-1.2,2.8h-1.1
		L330.3,48.6z M328.4,55h4.7l-2.3-5.3L328.4,55z"/>
	<path class="st0" d="M345.8,57.1v-8.5h1v10.1h-1l-6.6-8.5v8.5h-1V48.6h1L345.8,57.1z"/>
	<path class="st0" d="M350.6,58.7c-0.2,0-0.4-0.1-0.6-0.3s-0.3-0.4-0.3-0.6v-9.1h5.2c0.5,0,0.9,0.1,1.3,0.3c0.4,0.2,0.8,0.4,1.1,0.7
		c0.3,0.3,0.5,0.6,0.7,1c0.2,0.4,0.3,0.8,0.3,1.3v2.7c0,0.6-0.1,1.1-0.3,1.6c-0.2,0.5-0.5,0.9-0.9,1.3s-0.8,0.6-1.3,0.8
		c-0.5,0.2-1,0.3-1.5,0.3H350.6z M350.7,57.8h3.5c0.4,0,0.8-0.1,1.2-0.3s0.7-0.4,1-0.7c0.3-0.3,0.5-0.6,0.7-1
		c0.2-0.4,0.2-0.8,0.2-1.2v-2.7c0-0.3-0.1-0.6-0.2-0.9c-0.1-0.3-0.3-0.6-0.5-0.8c-0.2-0.2-0.5-0.4-0.8-0.5s-0.6-0.2-0.9-0.2h-4.2
		V57.8z"/>
	<path class="st0" d="M375.7,53.9h-6.1v4.8h-1V48.6h1V53h6.1v-4.4h1v10.1h-1V53.9z"/>
	<path class="st0" d="M387.8,54.7c0,0.6-0.1,1.1-0.3,1.6c-0.2,0.5-0.5,1-0.9,1.4c-0.4,0.4-0.8,0.7-1.3,0.9c-0.5,0.2-1,0.3-1.5,0.3
		h-1.2c-0.5,0-0.9-0.1-1.3-0.3c-0.4-0.2-0.8-0.4-1-0.8s-0.5-0.7-0.7-1.1c-0.2-0.4-0.3-0.9-0.3-1.3v-2.7c0-0.6,0.1-1.1,0.3-1.6
		c0.2-0.5,0.5-1,0.9-1.4c0.4-0.4,0.8-0.7,1.3-0.9s1-0.3,1.6-0.3h1.1c0.5,0,0.9,0.1,1.3,0.3c0.4,0.2,0.8,0.4,1,0.8
		c0.3,0.3,0.5,0.7,0.7,1.1c0.2,0.4,0.3,0.9,0.3,1.3V54.7z M386.9,51.9c0-0.3-0.1-0.6-0.2-1c-0.1-0.3-0.3-0.6-0.5-0.9
		s-0.5-0.5-0.8-0.6c-0.3-0.2-0.6-0.2-0.9-0.2h-1.1c-0.4,0-0.8,0.1-1.2,0.3c-0.4,0.2-0.7,0.4-1,0.8c-0.3,0.3-0.5,0.7-0.7,1.1
		c-0.2,0.4-0.2,0.8-0.2,1.3v2.7c0,0.3,0.1,0.6,0.2,1c0.1,0.3,0.3,0.6,0.5,0.9c0.2,0.3,0.5,0.5,0.8,0.6s0.6,0.2,0.9,0.2h1.2
		c0.4,0,0.8-0.1,1.2-0.3c0.4-0.2,0.7-0.4,1-0.8c0.3-0.3,0.5-0.7,0.7-1.1c0.2-0.4,0.2-0.8,0.2-1.3V51.9z"/>
	<path class="st0" d="M391.4,48.6v6.8c0,0.3,0.1,0.6,0.2,1c0.1,0.3,0.3,0.6,0.5,0.9c0.2,0.3,0.5,0.5,0.8,0.6
		c0.3,0.2,0.6,0.2,0.9,0.2h1.2c0.4,0,0.8-0.1,1.2-0.3c0.4-0.2,0.7-0.4,1-0.8c0.3-0.3,0.5-0.7,0.7-1.1c0.2-0.4,0.2-0.8,0.2-1.3v-6h1
		v6c0,0.6-0.1,1.1-0.3,1.6c-0.2,0.5-0.5,1-0.9,1.4c-0.4,0.4-0.8,0.7-1.3,0.9c-0.5,0.2-1,0.3-1.5,0.3h-1.2c-0.5,0-0.9-0.1-1.3-0.3
		c-0.4-0.2-0.8-0.4-1-0.8c-0.3-0.3-0.5-0.7-0.7-1.1s-0.3-0.9-0.3-1.3v-6.8H391.4z"/>
	<path class="st0" d="M402.5,55.5c0,0.3,0.1,0.7,0.2,1c0.1,0.3,0.3,0.6,0.5,0.8c0.2,0.2,0.5,0.4,0.8,0.6c0.3,0.1,0.6,0.2,1,0.2h2.1
		c0.4,0,0.8-0.1,1.1-0.2c0.3-0.1,0.6-0.3,0.9-0.5s0.4-0.5,0.6-0.7c0.1-0.3,0.2-0.6,0.2-0.9c0-0.2,0-0.4-0.1-0.6s-0.1-0.4-0.2-0.6
		c-0.1-0.2-0.3-0.4-0.5-0.5c-0.2-0.1-0.5-0.2-0.8-0.3l-4.2-0.5c-0.5-0.1-1-0.2-1.2-0.4c-0.3-0.2-0.5-0.4-0.6-0.6
		c-0.1-0.2-0.2-0.4-0.2-0.7s0-0.4,0-0.6c0-0.5,0.1-0.9,0.4-1.2s0.5-0.6,0.9-0.8s0.7-0.4,1.1-0.5c0.4-0.1,0.7-0.1,1-0.1h2.1
		c0.4,0,0.8,0.1,1.2,0.2c0.4,0.1,0.7,0.3,1,0.6c0.3,0.3,0.5,0.6,0.7,0.9c0.2,0.4,0.2,0.8,0.2,1.2h-1c0-0.3-0.1-0.6-0.2-0.8
		c-0.1-0.3-0.3-0.5-0.5-0.7c-0.2-0.2-0.4-0.3-0.7-0.4c-0.2-0.1-0.5-0.2-0.8-0.2h-2.1c-0.2,0-0.4,0-0.7,0.1c-0.3,0.1-0.5,0.2-0.8,0.4
		c-0.2,0.2-0.5,0.3-0.6,0.6c-0.2,0.2-0.3,0.5-0.3,0.8c0,0.1,0,0.2,0,0.3c0,0.1,0.1,0.3,0.1,0.4s0.2,0.3,0.4,0.4s0.4,0.2,0.8,0.2
		l4.2,0.5c0.5,0.1,1,0.2,1.3,0.5c0.3,0.2,0.6,0.5,0.7,0.7c0.2,0.3,0.3,0.6,0.3,0.9s0.1,0.6,0.1,0.8c0,0.5-0.1,0.9-0.3,1.3
		c-0.2,0.4-0.5,0.7-0.8,1c-0.3,0.3-0.7,0.5-1.2,0.7c-0.5,0.2-0.9,0.2-1.5,0.2H405c-0.5,0-0.9-0.1-1.4-0.3c-0.4-0.2-0.8-0.4-1.1-0.7
		c-0.3-0.3-0.6-0.7-0.7-1.1s-0.3-0.9-0.3-1.3H402.5z"/>
	<path class="st0" d="M413.6,48.6h8.1v0.8h-7.1V53h6.1v0.8h-6.1v4h7.1v0.8h-7.2c-0.2,0-0.4-0.1-0.6-0.3c-0.2-0.2-0.3-0.4-0.3-0.6
		V48.6z"/>
	<path class="st0" d="M425.3,55.5c0,0.3,0.1,0.7,0.2,1c0.1,0.3,0.3,0.6,0.5,0.8c0.2,0.2,0.5,0.4,0.8,0.6c0.3,0.1,0.6,0.2,1,0.2h2.1
		c0.4,0,0.8-0.1,1.1-0.2c0.3-0.1,0.6-0.3,0.9-0.5s0.4-0.5,0.6-0.7c0.1-0.3,0.2-0.6,0.2-0.9c0-0.2,0-0.4-0.1-0.6s-0.1-0.4-0.2-0.6
		c-0.1-0.2-0.3-0.4-0.5-0.5c-0.2-0.1-0.5-0.2-0.8-0.3l-4.2-0.5c-0.5-0.1-1-0.2-1.2-0.4c-0.3-0.2-0.5-0.4-0.6-0.6
		c-0.1-0.2-0.2-0.4-0.2-0.7s0-0.4,0-0.6c0-0.5,0.1-0.9,0.4-1.2s0.5-0.6,0.9-0.8s0.7-0.4,1.1-0.5c0.4-0.1,0.7-0.1,1-0.1h2.1
		c0.4,0,0.8,0.1,1.2,0.2c0.4,0.1,0.7,0.3,1,0.6c0.3,0.3,0.5,0.6,0.7,0.9c0.2,0.4,0.2,0.8,0.2,1.2h-1c0-0.3-0.1-0.6-0.2-0.8
		c-0.1-0.3-0.3-0.5-0.5-0.7c-0.2-0.2-0.4-0.3-0.7-0.4c-0.2-0.1-0.5-0.2-0.8-0.2h-2.1c-0.2,0-0.4,0-0.7,0.1c-0.3,0.1-0.5,0.2-0.8,0.4
		c-0.2,0.2-0.5,0.3-0.6,0.6c-0.2,0.2-0.3,0.5-0.3,0.8c0,0.1,0,0.2,0,0.3c0,0.1,0.1,0.3,0.1,0.4s0.2,0.3,0.4,0.4s0.4,0.2,0.8,0.2
		l4.2,0.5c0.5,0.1,1,0.2,1.3,0.5c0.3,0.2,0.6,0.5,0.7,0.7c0.2,0.3,0.3,0.6,0.3,0.9s0.1,0.6,0.1,0.8c0,0.5-0.1,0.9-0.3,1.3
		c-0.2,0.4-0.5,0.7-0.8,1c-0.3,0.3-0.7,0.5-1.2,0.7c-0.5,0.2-0.9,0.2-1.5,0.2h-2.1c-0.5,0-0.9-0.1-1.4-0.3c-0.4-0.2-0.8-0.4-1.1-0.7
		c-0.3-0.3-0.6-0.7-0.7-1.1s-0.3-0.9-0.3-1.3H425.3z"/>
	<path class="st0" d="M444.8,53.9v4.8h-1V48.6h8.1v0.8h-7.1V53h6.1v0.8H444.8z"/>
	<path class="st0" d="M455.6,48.6v6.8c0,0.3,0.1,0.6,0.2,1c0.1,0.3,0.3,0.6,0.5,0.9c0.2,0.3,0.5,0.5,0.8,0.6
		c0.3,0.2,0.6,0.2,0.9,0.2h1.2c0.4,0,0.8-0.1,1.2-0.3c0.4-0.2,0.7-0.4,1-0.8c0.3-0.3,0.5-0.7,0.7-1.1c0.2-0.4,0.2-0.8,0.2-1.3v-6h1
		v6c0,0.6-0.1,1.1-0.3,1.6c-0.2,0.5-0.5,1-0.9,1.4c-0.4,0.4-0.8,0.7-1.3,0.9c-0.5,0.2-1,0.3-1.5,0.3H458c-0.5,0-0.9-0.1-1.3-0.3
		c-0.4-0.2-0.8-0.4-1-0.8c-0.3-0.3-0.5-0.7-0.7-1.1s-0.3-0.9-0.3-1.3v-6.8H455.6z"/>
	<path class="st0" d="M473.5,57.1v-8.5h1v10.1h-1l-6.6-8.5v8.5h-1V48.6h1L473.5,57.1z"/>
	<path class="st0" d="M478.3,58.7c-0.2,0-0.4-0.1-0.6-0.3c-0.2-0.2-0.3-0.4-0.3-0.6v-9.1h5.2c0.5,0,0.9,0.1,1.3,0.3
		c0.4,0.2,0.8,0.4,1,0.7c0.3,0.3,0.5,0.6,0.7,1c0.2,0.4,0.3,0.8,0.3,1.3v2.7c0,0.6-0.1,1.1-0.3,1.6c-0.2,0.5-0.5,0.9-0.9,1.3
		s-0.8,0.6-1.3,0.8c-0.5,0.2-1,0.3-1.5,0.3H478.3z M478.3,57.8h3.5c0.4,0,0.8-0.1,1.2-0.3c0.4-0.2,0.7-0.4,1-0.7
		c0.3-0.3,0.5-0.6,0.7-1c0.2-0.4,0.2-0.8,0.2-1.2v-2.7c0-0.3-0.1-0.6-0.2-0.9s-0.3-0.6-0.5-0.8s-0.5-0.4-0.8-0.5
		c-0.3-0.1-0.6-0.2-0.9-0.2h-4.2V57.8z"/>
	<path class="st0" d="M506.7,58.7h-1v-8l-4.3,8.1l-4.3-8.1v8h-1V48.6h1l4.3,7.9l4.3-7.9h1V58.7z"/>
	<path class="st0" d="M513.7,48.6c0.3,0,0.6,0.1,0.8,0.2c0.3,0.1,0.4,0.3,0.6,0.6l4.2,9.3h-1.1l-1.3-2.8h-5.4l-1.2,2.8h-1.1
		L513.7,48.6z M511.9,55h4.7l-2.3-5.3L511.9,55z"/>
	<path class="st0" d="M529.3,57.1v-8.5h1v10.1h-1l-6.6-8.5v8.5h-1V48.6h1L529.3,57.1z"/>
	<path class="st0" d="M537.3,48.6c0.3,0,0.6,0.1,0.8,0.2c0.3,0.1,0.4,0.3,0.6,0.6l4.2,9.3h-1.1l-1.3-2.8h-5.4l-1.2,2.8h-1.1
		L537.3,48.6z M535.5,55h4.7l-2.3-5.3L535.5,55z"/>
	<path class="st0" d="M553.6,55.1c0,0.6-0.1,1.1-0.3,1.5s-0.5,0.9-0.9,1.2c-0.4,0.3-0.8,0.6-1.3,0.8s-1,0.3-1.5,0.3h-1.2
		c-0.5,0-0.9-0.1-1.3-0.3c-0.4-0.2-0.8-0.4-1-0.8s-0.5-0.7-0.7-1.1c-0.2-0.4-0.3-0.9-0.3-1.3v-2.8c0-0.6,0.1-1.1,0.3-1.6
		c0.2-0.5,0.5-1,0.9-1.3s0.8-0.7,1.3-0.9c0.5-0.2,1-0.3,1.6-0.3h1.1c0.5,0,0.9,0.1,1.3,0.2c0.4,0.2,0.7,0.4,1,0.7
		c0.3,0.3,0.5,0.6,0.7,1c0.2,0.4,0.3,0.8,0.3,1.3h-1c0-0.3-0.1-0.6-0.2-0.9s-0.3-0.5-0.5-0.8s-0.5-0.4-0.7-0.5
		c-0.3-0.1-0.6-0.2-0.9-0.2h-1.1c-0.4,0-0.8,0.1-1.2,0.3c-0.4,0.2-0.7,0.4-1,0.8c-0.3,0.3-0.5,0.7-0.7,1.1c-0.2,0.4-0.2,0.8-0.2,1.3
		v2.8c0,0.3,0.1,0.6,0.2,1c0.1,0.3,0.3,0.6,0.5,0.8c0.2,0.2,0.5,0.4,0.7,0.6c0.3,0.2,0.6,0.2,0.9,0.2h1.2c0.4,0,0.8-0.1,1.2-0.2
		c0.4-0.1,0.7-0.4,1-0.6c0.3-0.3,0.5-0.6,0.7-0.9s0.2-0.7,0.2-1.2h-3v-0.8h4V55.1z"/>
	<path class="st0" d="M556.3,48.6h8.1v0.8h-7.1V53h6.1v0.8h-6.1v4h7.1v0.8h-7.2c-0.2,0-0.4-0.1-0.6-0.3c-0.2-0.2-0.3-0.4-0.3-0.6
		V48.6z"/>
	<path class="st0" d="M577.8,58.7h-1v-8l-4.3,8.1l-4.3-8.1v8h-1V48.6h1l4.3,7.9l4.3-7.9h1V58.7z"/>
	<path class="st0" d="M580.8,48.6h8.1v0.8h-7.1V53h6.1v0.8h-6.1v4h7.1v0.8h-7.2c-0.2,0-0.4-0.1-0.6-0.3c-0.2-0.2-0.3-0.4-0.3-0.6
		V48.6z"/>
	<path class="st0" d="M599.2,57.1v-8.5h1v10.1h-1l-6.6-8.5v8.5h-1V48.6h1L599.2,57.1z"/>
	<path class="st0" d="M605.9,49.5h-3.1v-0.8h7.2v0.8h-3.1v9.2h-1V49.5z"/>
	<path class="st0" d="M627.2,51.6c0-0.3-0.1-0.6-0.2-0.9s-0.3-0.5-0.5-0.8s-0.5-0.4-0.7-0.5c-0.3-0.1-0.6-0.2-0.9-0.2h-1.1
		c-0.4,0-0.8,0.1-1.2,0.3c-0.4,0.2-0.7,0.4-1,0.8c-0.3,0.3-0.5,0.7-0.7,1.1c-0.2,0.4-0.2,0.8-0.2,1.3v2.8c0,0.3,0.1,0.6,0.2,1
		c0.1,0.3,0.3,0.6,0.5,0.8c0.2,0.2,0.5,0.4,0.7,0.6c0.3,0.2,0.6,0.2,0.9,0.2h1.2c0.4,0,0.8-0.1,1.2-0.2c0.4-0.1,0.7-0.4,1-0.6
		c0.3-0.3,0.5-0.6,0.7-0.9s0.2-0.7,0.2-1.2h1c0,0.6-0.1,1.1-0.3,1.5s-0.5,0.9-0.9,1.2c-0.4,0.3-0.8,0.6-1.3,0.8s-1,0.3-1.5,0.3H623
		c-0.5,0-0.9-0.1-1.3-0.3c-0.4-0.2-0.8-0.4-1-0.8s-0.5-0.7-0.7-1.1c-0.2-0.4-0.3-0.9-0.3-1.3v-2.8c0-0.6,0.1-1.1,0.3-1.6
		c0.2-0.5,0.5-1,0.9-1.3s0.8-0.7,1.3-0.9c0.5-0.2,1-0.3,1.6-0.3h1.1c0.5,0,0.9,0.1,1.3,0.2c0.4,0.2,0.7,0.4,1,0.7
		c0.3,0.3,0.5,0.6,0.7,1c0.2,0.4,0.3,0.8,0.3,1.3H627.2z"/>
	<path class="st0" d="M639.2,54.7c0,0.6-0.1,1.1-0.3,1.6c-0.2,0.5-0.5,1-0.9,1.4c-0.4,0.4-0.8,0.7-1.3,0.9c-0.5,0.2-1,0.3-1.5,0.3
		H634c-0.5,0-0.9-0.1-1.3-0.3c-0.4-0.2-0.8-0.4-1-0.8s-0.5-0.7-0.7-1.1c-0.2-0.4-0.3-0.9-0.3-1.3v-2.7c0-0.6,0.1-1.1,0.3-1.6
		c0.2-0.5,0.5-1,0.9-1.4c0.4-0.4,0.8-0.7,1.3-0.9s1-0.3,1.6-0.3h1.1c0.5,0,0.9,0.1,1.3,0.3c0.4,0.2,0.8,0.4,1,0.8
		c0.3,0.3,0.5,0.7,0.7,1.1c0.2,0.4,0.3,0.9,0.3,1.3V54.7z M638.2,51.9c0-0.3-0.1-0.6-0.2-1c-0.1-0.3-0.3-0.6-0.5-0.9
		s-0.5-0.5-0.8-0.6c-0.3-0.2-0.6-0.2-0.9-0.2h-1.1c-0.4,0-0.8,0.1-1.2,0.3c-0.4,0.2-0.7,0.4-1,0.8c-0.3,0.3-0.5,0.7-0.7,1.1
		c-0.2,0.4-0.2,0.8-0.2,1.3v2.7c0,0.3,0.1,0.6,0.2,1c0.1,0.3,0.3,0.6,0.5,0.9c0.2,0.3,0.5,0.5,0.8,0.6s0.6,0.2,0.9,0.2h1.2
		c0.4,0,0.8-0.1,1.2-0.3c0.4-0.2,0.7-0.4,1-0.8c0.3-0.3,0.5-0.7,0.7-1.1c0.2-0.4,0.2-0.8,0.2-1.3V51.9z"/>
	<path class="st0" d="M642.2,58.1c0-0.2,0.1-0.4,0.2-0.5c0.1-0.1,0.3-0.2,0.5-0.2s0.4,0.1,0.5,0.2c0.1,0.1,0.2,0.3,0.2,0.5
		s-0.1,0.4-0.2,0.5c-0.1,0.1-0.3,0.2-0.5,0.2s-0.4-0.1-0.5-0.2C642.3,58.4,642.2,58.3,642.2,58.1z"/>
	<path class="st0" d="M647.3,57.4h0.9V58c0,0.4-0.1,0.7-0.2,1s-0.2,0.5-0.4,0.7s-0.3,0.3-0.5,0.4c-0.2,0.1-0.3,0.2-0.4,0.3l-0.5-0.7
		c0.1-0.1,0.2-0.2,0.3-0.3c0.1-0.1,0.3-0.2,0.4-0.3c0.1-0.1,0.2-0.3,0.3-0.5c0.1-0.2,0.1-0.4,0.1-0.7V57.4z"/>
	<path class="st0" d="M651.1,48.6h1v9.2h6.3v0.8H652c-0.2,0-0.4-0.1-0.6-0.3c-0.2-0.2-0.3-0.4-0.3-0.6V48.6z"/>
	<path class="st0" d="M663.6,49.5h-3.1v-0.8h7.2v0.8h-3.1v9.2h-1V49.5z"/>
	<path class="st0" d="M671,58.7c-0.2,0-0.4-0.1-0.6-0.3c-0.2-0.2-0.3-0.4-0.3-0.6v-9.1h5.2c0.5,0,0.9,0.1,1.3,0.3
		c0.4,0.2,0.8,0.4,1,0.7c0.3,0.3,0.5,0.6,0.7,1c0.2,0.4,0.3,0.8,0.3,1.3v2.7c0,0.6-0.1,1.1-0.3,1.6c-0.2,0.5-0.5,0.9-0.9,1.3
		s-0.8,0.6-1.3,0.8c-0.5,0.2-1,0.3-1.5,0.3H671z M671.1,57.8h3.5c0.4,0,0.8-0.1,1.2-0.3c0.4-0.2,0.7-0.4,1-0.7
		c0.3-0.3,0.5-0.6,0.7-1c0.2-0.4,0.2-0.8,0.2-1.2v-2.7c0-0.3-0.1-0.6-0.2-0.9s-0.3-0.6-0.5-0.8s-0.5-0.4-0.8-0.5
		c-0.3-0.1-0.6-0.2-0.9-0.2h-4.2V57.8z"/>
</g>
</svg>
